<?xml version="1.0" encoding="utf-8"?>
<!-- Generator: Adobe Illustrator 27.5.0, SVG Export Plug-In . SVG Version: 6.00 Build 0)  -->
<svg version="1.1" xmlns="http://www.w3.org/2000/svg" xmlns:xlink="http://www.w3.org/1999/xlink" x="0px" y="0px"
	 viewBox="0 0 500 500" style="enable-background:new 0 0 500 500;" xml:space="preserve">
<g id="BACKGROUND">
	<rect style="fill:#FFFFFF;" width="500" height="500"/>
</g>
<g id="OBJECTS">
	<path style="fill:#FFEED1;" d="M227.474,157.54c-24.534-2.851-46.3-18.544-70.995-23.101c-24.928-4.599-53.71,2.161-73.944,17.544
		c-20.386,15.499-33.325,39.87-38.913,64.507C30.386,274.845,55.04,331.11,103.257,364.107
		c25.788,17.648,55.879,28.069,86.474,33.773c48.376,9.018,98.123,9.431,146.23-0.95c25.108-5.418,50.401-16.123,68.728-34.846
		c19.38-19.799,32.671-46.229,40.972-72.586c7.467-23.71,11.205-48.387,13.555-73.104c2.135-22.458,0.338-45.822-9.167-66.51
		c-14.262-31.04-46.697-52.896-80.842-54.473c-22.394-1.034-44.858,6.69-62.453,20.442c-13.718,10.722-25.207,24.196-40.357,33.061
		C254.641,155.793,241.055,159.118,227.474,157.54z"/>
	<g>
		<g>
			<path style="fill:#C4EDDE;" d="M369.393,366.817c-1.993-4.885-5.535-9.34-10.394-11.397c-6.586-2.788-14.5-0.627-20.038,3.899
				c-5.538,4.526-9.063,11.051-11.76,17.675c-8.37,20.556-9.422,44.312-3.897,65.808h25.078
				c5.706-11.33,11.012-22.862,15.903-34.566c2.755-6.593,5.395-13.296,6.675-20.326
				C372.24,380.878,372.092,373.434,369.393,366.817z"/>
			<path style="fill:#C4EDDE;" d="M349.851,362.341c-13.696,15.706-20.158,36.101-22.369,56.527
				c-0.686,6.335-0.982,12.705-1.038,19.075c-0.011,1.26,1.946,1.261,1.957,0c0.183-20.819,3.126-42.158,13.344-60.611
				c2.686-4.852,5.844-9.426,9.49-13.607C352.059,362.779,350.681,361.389,349.851,362.341z"/>
		</g>
		<g>
			<path style="fill:#C4EDDE;" d="M226.011,366.817c-1.993-4.885-5.535-9.34-10.394-11.397c-6.586-2.788-14.5-0.627-20.038,3.899
				c-5.538,4.526-9.063,11.051-11.76,17.675c-8.371,20.556-9.423,44.312-3.897,65.808H205c5.706-11.33,11.012-22.862,15.903-34.566
				c2.755-6.593,5.395-13.296,6.675-20.326C228.858,380.878,228.71,373.434,226.011,366.817z"/>
			<path style="fill:#C4EDDE;" d="M206.469,362.341c-13.696,15.706-20.158,36.101-22.369,56.527
				c-0.686,6.335-0.982,12.705-1.038,19.075c-0.011,1.26,1.946,1.261,1.957,0c0.183-20.819,3.126-42.158,13.344-60.611
				c2.687-4.852,5.844-9.426,9.49-13.607C208.677,362.779,207.299,361.389,206.469,362.341z"/>
		</g>
		<g>
			<path style="fill:#C4EDDE;" d="M257.573,378.058c1.698-4.163,4.716-7.959,8.856-9.711c5.612-2.376,12.355-0.534,17.074,3.322
				c4.719,3.856,7.722,9.416,10.021,15.06c7.132,17.515,8.029,37.756,3.321,56.072h-21.368c-4.862-9.654-9.383-19.479-13.55-29.453
				c-2.348-5.618-4.597-11.329-5.688-17.319S255.273,383.696,257.573,378.058z"/>
			<path style="fill:#C4EDDE;" d="M274.224,374.244c11.67,13.383,17.175,30.76,19.059,48.164c0.584,5.398,0.837,10.825,0.884,16.253
				c0.009,1.073-1.658,1.074-1.667,0c-0.156-17.739-2.663-35.921-11.37-51.645c-2.289-4.134-4.979-8.032-8.086-11.594
				C272.343,374.617,273.517,373.433,274.224,374.244z"/>
		</g>
		<g>
			<path style="fill:#7AC7C4;" d="M164.475,442.802h23.143c-1.146-17.064-5.129-34.058-12.763-49.362
				c-1.902-3.813-4.015-7.566-6.844-10.753c-1.489-1.677-3.503-3.299-5.721-2.97c-1.536,0.228-2.81,1.388-3.553,2.752
				c-0.743,1.364-1.036,2.921-1.283,4.454C154.403,405.866,156.764,425.231,164.475,442.802z"/>
			<path style="fill:#C4EDDE;" d="M169.618,395.445c-1.476-3.729-3.117-7.391-4.912-10.977c-0.499-0.997-1.994-0.121-1.496,0.874
				c6.253,12.491,10.525,25.943,12.636,39.751c0.603,3.944,1.014,7.914,1.259,11.896c0.068,1.107,1.801,1.115,1.732,0
				C177.961,422.765,174.864,408.699,169.618,395.445z"/>
		</g>
		<g>
			<path style="fill:#7AC7C4;" d="M326.149,442.802h-23.143c1.146-17.064,5.129-34.058,12.763-49.362
				c1.902-3.813,4.016-7.566,6.844-10.753c1.489-1.677,3.502-3.299,5.721-2.97c1.536,0.228,2.81,1.388,3.553,2.752
				c0.743,1.364,1.036,2.921,1.283,4.454C336.221,405.866,333.86,425.231,326.149,442.802z"/>
			<path style="fill:#C4EDDE;" d="M321.006,395.445c1.476-3.729,3.117-7.391,4.912-10.977c0.499-0.997,1.994-0.121,1.496,0.874
				c-6.253,12.491-10.525,25.943-12.636,39.751c-0.603,3.944-1.014,7.914-1.259,11.896c-0.068,1.107-1.801,1.115-1.732,0
				C312.663,422.765,315.759,408.699,321.006,395.445z"/>
		</g>
	</g>
	<g>
		<g>
			<g>
				<g>
					<path style="fill:#384259;" d="M367.574,440.021l-0.044,0.291c-0.044,0.432-0.097,0.847-0.177,1.297
						c-0.088,0.371-0.159,0.777-0.238,1.192h-44.53c0,0-0.071-0.459-0.071-1.183c0.018-0.371,0.044-0.803,0.124-1.306
						c0.018-0.088,0.026-0.194,0.062-0.291c0.486-2.507,2.313-5.967,8.394-7.079c0.291-0.071,0.6-0.106,0.936-0.15h0.027
						c0.477-0.071,0.953-0.115,1.465-0.159c0.168-0.009,0.336-0.026,0.503-0.035c12.181-0.953,17.574-5.04,17.574-5.04
						s7.061,1.412,13.681,0c0,0,0.777,1.289,1.465,3.531c0.106,0.379,0.221,0.785,0.327,1.218c0.026,0.079,0.044,0.168,0.071,0.265
						c0.044,0.168,0.079,0.362,0.115,0.556c0.009,0.053,0.027,0.124,0.027,0.177c0,0.044,0.026,0.062,0.026,0.097
						c0.177,0.918,0.309,1.924,0.362,3.01C367.724,437.541,367.715,438.75,367.574,440.021z"/>
					<path style="fill:#222B3D;" d="M367.574,440.021l-0.044,0.291c-0.044,0.432-0.097,0.847-0.177,1.297
						c-0.088,0.371-0.159,0.777-0.238,1.192h-11.236c-0.274-3.204,1.192-6.496,3.61-8.641c2.004-1.774,4.59-2.78,7.255-3.072
						c0.106,0.379,0.221,0.785,0.327,1.218c0.026,0.079,0.044,0.168,0.071,0.265c0.044,0.168,0.079,0.362,0.115,0.556
						c0.009,0.053,0.027,0.124,0.027,0.177c0,0.044,0.026,0.062,0.026,0.097c0.177,0.918,0.309,1.924,0.362,3.01
						C367.724,437.541,367.715,438.75,367.574,440.021z"/>
					<path style="fill:#222B3D;" d="M335.719,441.61c-0.088,0.477-0.662,0.741-1.086,0.618c-0.494-0.132-0.697-0.618-0.618-1.086
						c0.503-2.886-0.229-5.976-1.959-8.35c0.477-0.071,0.953-0.115,1.465-0.159c0.168-0.009,0.336-0.026,0.503-0.035
						C335.648,435.281,336.266,438.477,335.719,441.61z"/>
					<path style="fill:#FFFFFF;" d="M347.178,427.919c0.152-0.139,0.351-0.243,0.563-0.233c0.224,0.01,0.388,0.095,0.563,0.233
						c0.122,0.097,0.245,0.193,0.368,0.289c0.587,0.453,1.184,0.892,1.792,1.317c0.173,0.121,0.308,0.266,0.366,0.475
						c0.052,0.191,0.029,0.444-0.08,0.613c-0.218,0.338-0.724,0.541-1.089,0.286c-0.847-0.592-1.673-1.213-2.483-1.855
						c-0.149-0.118-0.233-0.382-0.233-0.563C346.945,428.287,347.031,428.054,347.178,427.919z"/>
					<path style="fill:#FFFFFF;" d="M344.026,429.337c0.298-0.274,0.836-0.337,1.125,0c0.583,0.678,1.233,1.294,1.938,1.844
						c0.113,0.085,0.226,0.17,0.341,0.252c0.173,0.122,0.308,0.265,0.366,0.476c0.053,0.19,0.029,0.444-0.08,0.613
						c-0.217,0.337-0.725,0.543-1.089,0.286c-0.957-0.677-1.837-1.455-2.601-2.344c-0.139-0.162-0.233-0.342-0.233-0.563
						C343.792,429.705,343.879,429.471,344.026,429.337z"/>
					<path style="fill:#FFFFFF;" d="M341.128,430.366c0.152-0.139,0.351-0.243,0.563-0.233c0.195,0.009,0.437,0.071,0.563,0.233
						l1.805,2.321c0.136,0.174,0.233,0.332,0.233,0.563c0,0.195-0.087,0.428-0.233,0.563c-0.152,0.139-0.351,0.243-0.563,0.233
						c-0.195-0.009-0.437-0.071-0.563-0.233l-1.805-2.321c-0.136-0.174-0.233-0.332-0.233-0.563
						C340.895,430.733,340.981,430.5,341.128,430.366z"/>
					<path style="fill:#FFFFFF;" d="M337.914,431.116c0.381-0.202,0.865-0.099,1.089,0.285c0.402,0.688,0.804,1.376,1.207,2.065
						c0.21,0.36,0.095,0.888-0.285,1.089c-0.382,0.202-0.865,0.099-1.089-0.285c-0.402-0.688-0.804-1.376-1.207-2.065
						C337.418,431.845,337.534,431.316,337.914,431.116z"/>
					<path style="fill:#FFFFFF;" d="M367.536,440.318c-0.051,0.42-0.103,0.849-0.189,1.286c-0.077,0.386-0.146,0.789-0.24,1.2
						h-44.52c0,0-0.077-0.454-0.077-1.183c0.017-0.377,0.043-0.814,0.129-1.303H367.536z"/>
				</g>
				<g>
					<path style="fill:#384259;" d="M435.67,440.021l-0.044,0.291c-0.044,0.432-0.097,0.847-0.177,1.297
						c-0.088,0.371-0.159,0.777-0.238,1.192h-44.53c0,0-0.071-0.459-0.071-1.183c0.018-0.371,0.044-0.803,0.124-1.306
						c0.018-0.088,0.026-0.194,0.062-0.291c0.486-2.507,2.313-5.967,8.394-7.079c0.291-0.071,0.6-0.106,0.936-0.15h0.027
						c0.477-0.071,0.953-0.115,1.465-0.159c0.168-0.009,0.336-0.026,0.503-0.035c12.181-0.953,17.574-5.04,17.574-5.04
						s7.061,1.412,13.681,0c0,0,0.777,1.289,1.465,3.531c0.106,0.379,0.221,0.785,0.327,1.218c0.026,0.079,0.044,0.168,0.071,0.265
						c0.044,0.168,0.079,0.362,0.115,0.556c0.009,0.053,0.026,0.124,0.026,0.177c0,0.044,0.027,0.062,0.027,0.097
						c0.176,0.918,0.309,1.924,0.362,3.01C435.82,437.541,435.811,438.75,435.67,440.021z"/>
					<path style="fill:#222B3D;" d="M435.67,440.021l-0.044,0.291c-0.044,0.432-0.097,0.847-0.177,1.297
						c-0.088,0.371-0.159,0.777-0.238,1.192h-11.236c-0.274-3.204,1.192-6.496,3.61-8.641c2.004-1.774,4.59-2.78,7.255-3.072
						c0.106,0.379,0.221,0.785,0.327,1.218c0.026,0.079,0.044,0.168,0.071,0.265c0.044,0.168,0.079,0.362,0.115,0.556
						c0.009,0.053,0.026,0.124,0.026,0.177c0,0.044,0.027,0.062,0.027,0.097c0.176,0.918,0.309,1.924,0.362,3.01
						C435.82,437.541,435.811,438.75,435.67,440.021z"/>
					<path style="fill:#222B3D;" d="M403.815,441.61c-0.088,0.477-0.662,0.741-1.086,0.618c-0.494-0.132-0.697-0.618-0.618-1.086
						c0.503-2.886-0.229-5.976-1.959-8.35c0.477-0.071,0.953-0.115,1.465-0.159c0.168-0.009,0.336-0.026,0.503-0.035
						C403.744,435.281,404.362,438.477,403.815,441.61z"/>
					<path style="fill:#FFFFFF;" d="M415.274,427.919c0.152-0.139,0.351-0.243,0.563-0.233c0.224,0.01,0.388,0.095,0.563,0.233
						c0.122,0.097,0.245,0.193,0.368,0.289c0.587,0.453,1.184,0.892,1.792,1.317c0.173,0.121,0.308,0.266,0.366,0.475
						c0.052,0.191,0.029,0.444-0.08,0.613c-0.218,0.338-0.724,0.541-1.089,0.286c-0.847-0.592-1.673-1.213-2.482-1.855
						c-0.149-0.118-0.233-0.382-0.233-0.563C415.041,428.287,415.127,428.054,415.274,427.919z"/>
					<path style="fill:#FFFFFF;" d="M412.122,429.337c0.298-0.274,0.836-0.337,1.125,0c0.583,0.678,1.233,1.294,1.937,1.844
						c0.113,0.085,0.226,0.17,0.342,0.252c0.173,0.122,0.308,0.265,0.366,0.476c0.052,0.19,0.029,0.444-0.08,0.613
						c-0.217,0.337-0.725,0.543-1.089,0.286c-0.957-0.677-1.837-1.455-2.601-2.344c-0.14-0.162-0.233-0.342-0.233-0.563
						C411.888,429.705,411.975,429.471,412.122,429.337z"/>
					<path style="fill:#FFFFFF;" d="M409.224,430.366c0.152-0.139,0.351-0.243,0.563-0.233c0.195,0.009,0.437,0.071,0.563,0.233
						l1.805,2.321c0.136,0.174,0.233,0.332,0.233,0.563c0,0.195-0.087,0.428-0.233,0.563c-0.152,0.139-0.351,0.243-0.563,0.233
						c-0.195-0.009-0.437-0.071-0.563-0.233l-1.805-2.321c-0.136-0.174-0.233-0.332-0.233-0.563
						C408.991,430.733,409.077,430.5,409.224,430.366z"/>
					<path style="fill:#FFFFFF;" d="M406.01,431.116c0.381-0.202,0.865-0.099,1.089,0.285c0.402,0.688,0.804,1.376,1.207,2.065
						c0.21,0.36,0.095,0.888-0.285,1.089c-0.382,0.202-0.865,0.099-1.089-0.285c-0.402-0.688-0.804-1.376-1.207-2.065
						C405.514,431.845,405.63,431.316,406.01,431.116z"/>
					<path style="fill:#FFFFFF;" d="M435.632,440.318c-0.051,0.42-0.103,0.849-0.189,1.286c-0.077,0.386-0.146,0.789-0.24,1.2
						h-44.52c0,0-0.077-0.454-0.077-1.183c0.017-0.377,0.043-0.814,0.129-1.303H435.632z"/>
				</g>
				<path style="fill:#F08F69;" d="M351.638,427.554c0,0-8.36-63.916-9.618-85.52c-1.258-21.6,8.347-59.166,17.008-86.453h37.035
					c0,0-26.828,64.599-27.712,86.286c-0.875,21.45-3.202,59.662-3.035,85.687C365.315,427.554,356.896,430.404,351.638,427.554z"/>
				<path style="fill:#F08F69;" d="M432.629,427.554c0,0-4.581-120.364-8.673-171.973h-33.41c0,0,7.136,80.796,28.406,171.973
					C418.952,427.554,424.751,428.903,432.629,427.554z"/>
			</g>
			<g>
				<path style="fill:#B52141;" d="M433.908,420.917c-0.762,0.208-1.827,0.346-3.074,0.433c-0.277,0.017-0.563,0.035-0.857,0.043
					c-6.27,0.312-16.004-0.476-16.004-0.476c-13.285-65.159-24.907-144.278-24.907-144.278s-16.809,53.398-17.693,57.824
					c-0.883,4.417-0.667,86.454-0.667,86.454c-1.888,0.468-3.888,0.753-5.889,0.909c-0.286,0.026-0.58,0.043-0.866,0.061
					c-8.21,0.52-16.125-0.97-16.125-0.97s-9.699-65.964-8.911-91.026c0.788-25.062,19.26-74.313,19.26-74.313h65.782
					C427.231,287.698,433.908,420.917,433.908,420.917z"/>
				<g>
					<path style="fill:#9C1C38;" d="M430.834,421.349c-0.277,0.017-0.563,0.035-0.857,0.043c-0.961-10.279-1.905-20.55-2.849-30.839
						c-1.81-19.615-3.62-39.23-5.43-58.854c-1.81-19.719-3.629-39.43-5.447-59.149c-0.009-0.069,0-0.121,0.017-0.173
						c-4.451-0.381-8.755-2.2-12.081-5.248c-0.407-0.381,0.208-0.987,0.615-0.615c4.521,4.157,11.024,5.941,17.034,4.685
						c0.546-0.113,0.771,0.719,0.234,0.831c-1.654,0.346-3.326,0.476-4.988,0.398c0.009,0.035,0.026,0.069,0.035,0.121l3.04,33.03
						c1.81,19.615,3.62,39.23,5.43,58.854C427.335,383.409,429.085,402.384,430.834,421.349z"/>
					<path style="fill:#9C1C38;" d="M388.651,274.5c-0.545-0.364-1.048-0.779-1.507-1.23c-0.485,1.013-0.97,2.035-1.464,3.057
						l-13.51,28.336c-4.304,9.024-8.721,18.056-9.838,28.128c-0.554,5.04-0.494,10.132-0.32,15.198
						c0.173,5.179,0.39,10.349,0.589,15.528c0.398,10.531,0.797,21.07,1.204,31.601c0.338,8.903,0.676,17.805,1.013,26.708
						c-0.286,0.026-0.58,0.043-0.866,0.061c-0.39-10.349-0.788-20.715-1.178-31.064c-0.407-10.531-0.805-21.07-1.204-31.601
						c-0.39-10.15-1.368-20.576,0.511-30.631c1.836-9.795,6.668-18.775,10.92-27.686c4.503-9.44,9.007-18.879,13.51-28.319
						c-1.888-2.278-2.754-5.361-2.208-8.323c0.104-0.546,0.935-0.312,0.84,0.234c-0.658,3.516,0.961,7.292,3.94,9.258
						C389.551,274.058,389.118,274.803,388.651,274.5z"/>
				</g>
			</g>
		</g>
		<g>
			<g>
				<path style="fill:#F08F69;" d="M298.341,145.327c0,0-1.447-14.177-6.938-15.835c-5.882-1.777-16.256-2.395-16.477-0.774
					c-0.171,1.255,10.429,3.722,10.429,3.722s-5.505,4.404-5.063,8.052s8.399,9.127,8.399,9.127L298.341,145.327z"/>
				<path style="fill:#B52141;" d="M352.792,186.321c0,0-19.53,22.68-33.82,22.18c-0.34-0.01-0.67-0.04-1-0.08
					c-0.26-0.03-0.52-0.06-0.77-0.11c-2.7-0.49-5.83-3.96-9.04-8.97c-0.2-0.33-0.41-0.66-0.62-1c-1.67-2.69-3.35-5.77-5-9.05
					c-0.15-0.31-0.31-0.62-0.46-0.94c-1.37-2.75-2.7-5.62-3.98-8.49c-0.14-0.32-0.28-0.63-0.41-0.94c-0.96-2.18-1.89-4.35-2.78-6.47
					c-0.12-0.31-0.25-0.62-0.38-0.93c-1.06-2.57-2.05-5.06-2.95-7.35c-0.13-0.32-0.25-0.63-0.37-0.94v-0.01
					c-1.41-3.63-2.56-6.74-3.35-8.94c-0.13-0.34-0.24-0.66-0.35-0.95c-0.59-1.63-0.91-2.57-0.91-2.57
					c3.14-4.65,13.63-6.77,13.63-6.77s0.54,1.18,1.44,3.15c0.14,0.29,0.28,0.6,0.43,0.92c0.98,2.14,2.28,4.98,3.75,8.14
					c0.14,0.3,0.28,0.61,0.42,0.92c1.1,2.37,2.27,4.89,3.46,7.43c0.14,0.3,0.28,0.61,0.42,0.91c0.65,1.38,1.29,2.76,1.93,4.11
					c0.14,0.3,0.28,0.6,0.42,0.9v0.01c1.1,2.32,2.16,4.54,3.13,6.55c0.15,0.31,0.29,0.61,0.44,0.91c0.85,1.76,1.62,3.33,2.27,4.62
					c0.17,0.34,0.34,0.67,0.49,0.97c0.89,1.73,1.48,2.76,1.62,2.76c0.03,0,0.07-0.03,0.12-0.07c0,0,0,0,0.01-0.01
					c0.26-0.22,0.83-0.9,1.64-1.91c4.99-6.22,19.29-25.24,29.78-30.52L352.792,186.321z"/>
				<path style="fill:#F73859;" d="M354.672,187.971l-2.69,2.69l-2.64,2.64l-0.93,0.93l-9.12,9.12l-0.99,0.98l-2.48,2.48
					c-4.46-3.84-8.39-9.56-11.21-14.36c-0.28-0.48-0.56-0.96-0.82-1.42c-2.35-4.15-3.75-7.29-3.75-7.29s2.84-3.57,7.05-8.29
					c0.24-0.27,0.48-0.55,0.73-0.83c6.83-7.59,16.79-17.65,24.18-20.84v0.05l0.38,4.78l0.08,1.07l1.52,19.45l0.08,1.04
					L354.672,187.971z"/>
			</g>
			<g>
				<g>
					<g>
						<g>
							<g>
								<g>
									<g>
										<g>
											<path style="fill:#F73859;" d="M426.102,258.021c-0.29,0.93-4.09,3.35-10.43,5.93c-0.01,0-0.01,0-0.01,0
												c-0.51,0.21-1.03,0.42-1.58,0.63h-0.01c-1.77,0.68-3.71,1.36-5.8,2.02c-0.42,0.14-0.85,0.27-1.28,0.41
												c-5.46,1.66-11.89,3.16-19,4.11c-0.35,0.05-0.71,0.1-1.07,0.14c-10.24,1.28-21.83,1.4-33.96-0.79
												c-0.08-0.01-0.16-0.52-0.22-1.45c-0.02-0.29-0.05-0.62-0.07-0.99c-0.31-5.86-0.49-21.56-0.59-39.51c0-0.33-0.01-0.66,0-1
												c-0.01-0.7-0.01-1.41-0.02-2.13v-1.17c-0.04-7.17-0.06-14.6-0.07-21.83c0-0.34,0-0.69-0.01-1.03v-8.06
												c-0.01-0.89-0.01-1.77,0-2.64c-0.01-3.79-0.01-7.43-0.01-10.86v-0.97c0-7.84,0.01-14.46,0.01-18.92
												c0.01-0.38,0.01-0.75,0.01-1.1c0.01-3.17,0.01-4.98,0.01-4.98l7.41-3.36l1.18-0.54l4.34-1.97l13.29-1.5l7.49,1.1
												l0.99,0.15l5.78,0.85c0,0,3.3,9.14,7.83,22.15c0.16,0.44,0.31,0.89,0.47,1.34v0.01c1.63,4.68,3.4,9.81,5.23,15.17
												c0.12,0.35,0.24,0.7,0.36,1.05c0.99,2.91,2,5.88,3,8.88v0.01c0.06,0.17,0.12,0.33,0.17,0.5c0.07,0.19,0.13,0.39,0.2,0.58
												c3.11,9.33,6.21,18.85,8.86,27.51c0.13,0.39,0.25,0.78,0.36,1.17c0.75,2.44,1.46,4.81,2.11,7.07
												c0.1,0.32,0.19,0.64,0.29,0.96c2.08,7.19,3.65,13.31,4.4,17.52c0.07,0.35,0.12,0.68,0.17,1
												C426.282,255.661,426.352,257.231,426.102,258.021z"/>
										</g>
									</g>
								</g>
							</g>
						</g>
					</g>
				</g>
			</g>
			<g>
				<path style="fill:#F75672;" d="M411.432,173.021c-3.07,0.31-6.13,0.46-9.14-0.41c-0.52-0.15-1.03-0.33-1.51-0.55v-0.01
					c-1.86-0.8-3.47-2.01-5.07-3.28c-1.11-0.87-2.25-1.77-3.49-2.47c-0.96-0.54-1.97-0.96-3.08-1.14c-3.04-0.51-6.05,0.89-8.5,2.56
					c-2.39,1.64-4.46,3.7-6.8,5.41c-2.08,1.52-4.36,2.72-6.95,3.02c-2.2,0.25-4.57-0.16-6.35-1.55c-3.89-3.05-2.53-8.5,0.33-11.74
					c3.71-4.21,9.78-4.74,14.85-6.24c4.28-1.26,9.48-4.2,9.99-9.06l0.99,0.15c-0.5,4.26-4.34,7.38-8.13,8.97
					c-2.56,1.08-5.31,1.6-7.99,2.3c-2.68,0.7-5.54,1.54-7.71,3.33c-3.33,2.75-5.84,8.9-1.28,11.82c1.97,1.26,4.53,1.32,6.75,0.74
					c2.72-0.73,5.03-2.54,7.16-4.31c4.1-3.41,9.11-7.84,14.9-6.14c0.64,0.19,1.25,0.45,1.84,0.76c1.53,0.78,2.91,1.89,4.25,2.95
					c1.23,0.97,2.47,1.88,3.82,2.58c0.98,0.51,2.01,0.92,3.14,1.16c2.5,0.54,5.01,0.45,7.53,0.21
					C411.132,172.391,411.282,172.711,411.432,173.021z"/>
				<path style="fill:#F75672;" d="M418.262,189.081c-0.95,0.02-1.9,0.01-2.84-0.02c-3.02-0.08-6.05-0.35-9.05-0.78
					c-0.08-0.01-0.15-0.02-0.23-0.03c-4.87-0.72-9.57-1.98-14.19-3.57c-1.38-0.47-2.75-0.98-4.11-1.51c-5-1.95-10.76-3.9-15.84-1.1
					c-2.14,1.17-3.67,3.06-4.08,5.49c-0.43,2.52,0.12,5.09-0.07,7.62c-0.07,0.89-0.25,1.76-0.56,2.55c0,0,0,0-0.01,0.01
					c-0.19,0.53-0.45,1.03-0.79,1.48c0,0.01-0.01,0.01-0.01,0.02c-0.47,0.66-1.07,1.23-1.82,1.67c-2.01,1.17-4.47,1.22-6.72,1.21
					c-2.01-0.01-3.98-0.04-5.95,0.27c0-0.34,0-0.69-0.01-1.03c0.53-0.08,1.06-0.15,1.59-0.19c4.25-0.34,11.27,1.28,12.95-4.14
					c0.76-2.47,0.19-5.15,0.25-7.68c0.05-2.35,0.66-4.56,2.3-6.3c3.58-3.79,9.23-3.9,13.92-2.62c3.03,0.83,5.89,2.14,8.84,3.2
					c0.05,0.02,0.09,0.03,0.14,0.05c2.92,1.04,5.9,1.9,8.92,2.58c1.69,0.38,3.4,0.71,5.12,0.97c3.92,0.62,7.9,0.94,11.86,0.87h0.01
					C418.012,188.441,418.142,188.771,418.262,189.081z"/>
				<path style="fill:#F75672;" d="M387.992,271.121c-0.35,0.05-0.71,0.1-1.07,0.14c-0.51-0.9-1.03-1.78-1.58-2.65
					c-2.67-4.22-6.83-8.84-12.21-8.98c-5.27-0.15-9.21,4.15-13.35,6.76c-2.16,1.36-4.56,2.26-7.04,2.63
					c-0.02-0.29-0.05-0.62-0.07-0.99c2.04-0.3,4.02-0.99,5.82-2.03c4.23-2.45,7.84-6.54,12.89-7.27c5.14-0.73,9.59,2.57,12.66,6.35
					C385.562,266.961,386.782,269.031,387.992,271.121z"/>
				<path style="fill:#F75672;" d="M358.022,221.711c-1.98,1.22-3.94,2.51-5.96,3.68v-1.17c2.14-1.27,4.24-2.63,6.37-3.93
					c4.99-3.04,10.09-5.95,15.51-8.16c5.29-2.16,11.05-3.7,16.8-3.64c2.71,0.03,5.49,0.57,7.64,2.3c1.97,1.58,3.04,3.92,2.69,6.45
					c-0.38,2.65-1.97,4.92-2.65,7.49c-0.64,2.43-0.06,4.87,1.36,6.91c1.41,2.01,3.54,3.55,5.83,4.38c2.71,0.99,5.69,0.94,8.48,0.37
					c2.42-0.49,4.74-1.36,6.98-2.39c0.1,0.32,0.19,0.64,0.29,0.96c-2.25,1.03-4.58,1.9-7,2.4c-2.7,0.55-5.6,0.67-8.27-0.12
					c-2.32-0.7-4.49-2.02-6.13-3.81c-1.53-1.66-2.6-3.74-2.79-6.01c-0.22-2.71,1.1-5.1,2.08-7.54c0.5-1.23,0.93-2.52,0.89-3.85
					c-0.03-1.33-0.58-2.57-1.45-3.56c-1.96-2.25-4.96-2.93-7.83-2.98c-5.86-0.09-11.71,1.54-17.09,3.78
					C368.272,215.561,363.102,218.601,358.022,221.711z"/>
				<path style="fill:#F75672;" d="M425.932,253.481c-3.73,0.3-7.53,0.07-11.2-0.47c-5.83-0.85-11.5-2.62-16.93-4.89
					c-5.56-2.32-10.89-5.14-16.09-8.17c-2.62-1.52-5.22-3.11-7.8-4.71c-2.51-1.55-5.02-3.11-7.68-4.41
					c-4.39-2.15-9.36-3.55-14.15-2.31c0-0.33-0.01-0.66,0-1c2.33-0.57,4.8-0.6,7.22-0.15c5.85,1.09,10.96,4.44,15.94,7.52
					c10.3,6.37,21.01,12.55,32.79,15.71c5.77,1.54,11.76,2.3,17.72,1.88h0.01C425.832,252.831,425.882,253.161,425.932,253.481z"/>
				<path style="fill:#F75672;" d="M418.962,226.931c-2.68-0.75-5.05-2.58-6.77-4.8c-2.93-3.78-4.31-8.4-6.63-12.52
					c-1.17-2.08-2.59-3.99-4.46-5.49c-1.52-1.22-3.29-2.15-5.15-2.76c-0.18-0.07-0.36-0.13-0.54-0.18c-1.21-0.36-2.44-0.6-3.69-0.71
					c-0.89-0.08-1.78-0.1-2.68-0.06c-2.33,0.11-4.54,0.71-6.72,1.5c-2.34,0.84-4.63,1.84-7.05,2.44c-2.03,0.5-4.33,0.83-6.36,0.11
					c-1.86-0.66-3.09-2.25-2.7-4.28c0.06-0.32,0.15-0.63,0.27-0.94c0-0.01,0.01-0.01,0.01-0.02c0.2-0.52,0.47-1.01,0.79-1.48
					c0.01-0.01,0.01-0.01,0.01-0.01c0.75-1.09,1.75-2.04,2.7-2.79c3.56-2.85,8.16-3.99,12.66-3.91c3.13,0.06,6.18,0.64,9.19,1.43
					c2.19,0.58,4.36,1.27,6.51,1.95c3.65,1.15,7.28,2.19,11.02,2.75v0.01c0.37,0.06,0.75,0.11,1.13,0.15
					c-0.31,0.12-0.63,0.24-0.96,0.35c0.07,0.19,0.13,0.39,0.2,0.58c-0.42-0.06-0.85-0.12-1.26-0.19c-0.01,0-0.01,0-0.01,0
					c-4.08-0.69-8.01-1.95-11.96-3.19c-1.55-0.48-3.11-0.96-4.69-1.38c-3.46-0.93-6.99-1.59-10.58-1.45
					c-4.38,0.17-8.88,1.67-11.96,4.9c-1.33,1.4-3.23,4.03-1.4,5.78c1.46,1.41,3.93,1.26,5.77,0.95c4.59-0.79,8.67-3.36,13.29-4.05
					c1.59-0.24,3.2-0.29,4.8-0.15c2.09,0.18,4.15,0.69,6.08,1.53c0.34,0.15,0.67,0.3,1,0.47c4,2.04,6.6,5.5,8.55,9.44
					c2,4.03,3.49,8.5,6.65,11.83c1.24,1.3,2.85,2.4,4.58,3.02C418.732,226.151,418.852,226.541,418.962,226.931z"/>
				<path style="fill:#F75672;" d="M344.252,192.441c1.57,0.39,3.33,0.74,5.09,0.86l-0.93,0.93c-1.6-0.18-3.17-0.5-4.61-0.87
					c-4.16-1.06-8.3-2.95-11.33-6.06c-1.53-1.57-2.69-3.42-3.44-5.48c-0.76-2.08-1.13-4.31-1.94-6.37c0.24-0.27,0.48-0.55,0.73-0.83
					c0.75,1.75,1.16,3.65,1.7,5.48c0.67,2.27,1.68,4.34,3.29,6.1C335.792,189.481,340.012,191.391,344.252,192.441z"/>
				<path style="fill:#F75672;" d="M357.682,192.371c-1.67,1.22-3.64,1.78-5.7,1.94v-1.01c2.38-0.2,4.62-0.98,6.29-2.78
					c1.42-1.55,2.31-3.79,1.7-5.88c-0.62-2.1-2.57-3.4-4.55-4.09c-0.44-0.15-0.9-0.28-1.36-0.38c-0.68-0.17-1.38-0.28-2.09-0.37
					c-3.63-0.45-7.45-0.27-10.47-2.63c-1.71-1.34-2.95-3.31-3.23-5.47c-0.29-2.15,0.48-4.24,1.8-5.91c3-3.81,7.78-4.92,11.92-6.98
					c0.13-0.06,0.25-0.13,0.37-0.19c0.01,0,0.01-0.01,0.02-0.01c2.2-1.15,4.11-2.69,5.47-4.79c0.68-1.04,1.2-2.17,1.56-3.35
					l1.18-0.54c-0.04,0.19-0.09,0.38-0.14,0.57c-0.62,2.17-1.76,4.2-3.31,5.85c-1.33,1.42-2.95,2.47-4.68,3.33
					c-0.16,0.08-0.32,0.16-0.48,0.23c-0.27,0.14-0.55,0.27-0.83,0.39c-4.15,1.84-9.45,3.39-11.42,7.95
					c-0.93,2.16-0.55,4.54,0.77,6.44c1.44,2.06,3.7,3.08,6.1,3.52c1.71,0.32,3.56,0.41,5.37,0.62c0.68,0.07,1.35,0.17,2.01,0.3
					c2.03,0.4,3.94,1.13,5.45,2.71C362.542,185.081,361.002,189.941,357.682,192.371z"/>
				<path style="fill:#F75672;" d="M415.662,263.951c-0.51,0.21-1.03,0.42-1.58,0.63c-0.01,0.01-0.01,0-0.01,0
					c-0.77-0.21-1.52-0.46-2.27-0.73c-4.94-1.8-9.48-4.73-13.04-8.61c-1.82-1.99-3.47-4.28-5.85-5.64
					c-1.32-0.75-2.81-1.13-4.32-1.09c-1.27,0.02-3.04,0.3-3.99,1.24c-1.16,1.17,0.22,2.6,1.18,3.33c1.31,0.97,2.81,1.73,4.21,2.57
					c2.92,1.75,5.85,3.51,8.77,5.26c3.17,1.9,6.34,3.8,9.51,5.69c-0.42,0.14-0.85,0.27-1.28,0.41c-3.91-2.35-7.82-4.69-11.73-7.03
					c-3.06-1.84-6.15-3.65-9.2-5.52c-1.08-0.66-2.22-1.52-2.71-2.73c-0.45-1.14-0.04-2.3,0.93-3c2.27-1.64,5.78-1.52,8.24-0.44
					c2.61,1.15,4.45,3.42,6.29,5.5C403.262,258.831,409.212,262.371,415.662,263.951z"/>
				<path style="fill:#F75672;" d="M339.292,203.351l-0.99,0.98c-2.38-0.83-4.49-2.41-6.26-4.19c-1.44-1.45-2.72-3.04-4.05-4.57
					c-0.84-0.97-2.01-2.57-3.38-3.12c-0.28-0.48-0.56-0.96-0.82-1.42c1.45,0.06,2.69,1.09,3.7,2.15c1.44,1.51,2.73,3.15,4.12,4.7
					C333.712,200.211,336.252,202.501,339.292,203.351z"/>
			</g>
			<g>
				<path style="fill:#F08F69;" d="M353.321,222.591c0,0-10.027-3.103-11.107-1.714c-0.951,1.224,3.774,3.921,3.774,3.921
					s-11.761,1.238-11.613,2.946c0.193,2.233,9.82,0.707,9.82,0.707s-11.264,2.638-10.902,4.125
					c0.477,1.959,11.923-0.277,11.923-0.277s-9.262,2.888-8.76,4.332c0.707,2.033,10.151-1.455,10.151-1.455
					s-5.055,2.666-4.438,3.801c0.617,1.135,9.656-2.73,13.896-6.4L353.321,222.591z"/>
				<path style="fill:#B52141;" d="M418.682,206.341c-0.22,0.83-0.82,1.73-1.76,2.68c-0.26,0.26-0.55,0.54-0.86,0.82
					c-2.7,2.35-7.2,4.98-12.56,7.62c-0.37,0.18-0.73,0.36-1.11,0.54c-2.38,1.15-4.91,2.31-7.51,3.44c-0.35,0.16-0.71,0.31-1.07,0.46
					c-3.58,1.55-7.28,3.05-10.9,4.47c-0.32,0.13-0.64,0.26-0.96,0.38c-3.11,1.21-6.16,2.36-8.99,3.4c-0.32,0.12-0.63,0.23-0.94,0.35
					c-3.7,1.35-7.02,2.52-9.66,3.44c-0.32,0.11-0.64,0.22-0.94,0.32c-3.29,1.14-5.29,1.79-5.29,1.79
					c-3.56-6.48-4.16-15.93-4.16-15.93s1.68-0.61,4.39-1.61c0.3-0.11,0.61-0.23,0.94-0.35c2.07-0.77,4.62-1.74,7.42-2.81
					c0.31-0.13,0.62-0.24,0.93-0.37c2.24-0.86,4.61-1.8,7.01-2.76c0.31-0.13,0.63-0.26,0.94-0.38c2.53-1.03,5.06-2.09,7.47-3.14
					c0.32-0.13,0.62-0.27,0.93-0.4c2.19-0.97,4.27-1.91,6.11-2.81c0.31-0.16,0.61-0.3,0.9-0.45c2.68-1.34,4.79-2.56,5.98-3.55
					c0.31-0.25,0.56-0.5,0.73-0.72c0.18-0.22,0.29-0.41,0.32-0.59c0.12-0.62,0.14-2.08,0.08-4.14c-0.02-0.33-0.03-0.68-0.04-1.05
					c-0.51-13.37-3.6-46.43-3.6-46.43c8.83,2.07,24.02,31.8,26.35,49.46c0.04,0.34,0.08,0.67,0.12,0.99
					C419.252,201.871,419.192,204.371,418.682,206.341z"/>
				<path style="fill:#F73859;" d="M419.792,193.231c0,0,0,0-0.01,0.01c-0.01,0.01-0.02,0.02-0.03,0.01
					c-0.43,0.23-3.97,2.1-9.25,4.07c-0.31,0.12-0.63,0.24-0.96,0.35c-0.35,0.13-0.7,0.26-1.06,0.39c-0.01,0-0.01,0-0.01,0
					c-2.23,0.77-4.71,1.54-7.34,2.19c-0.56,0.15-1.12,0.28-1.69,0.41c-0.53,0.12-1.07,0.23-1.62,0.34
					c-0.62,0.13-1.24,0.25-1.87,0.36c-1.3,0.22-2.62,0.4-3.95,0.54c-0.1,0.02-0.2,0.03-0.3,0.04v-0.14l0.02-1.33l0.02-1l0.08-5.98
					l0.02-1.03l0.11-7.68v-0.1l0.02-1v-0.04l0.25-17.14v-0.2l0.02-0.87v-0.25l0.24-16.62c3.18,0.58,6.51,3.76,9.71,8.18
					c0.21,0.28,0.41,0.57,0.61,0.86c2.15,3.09,4.24,6.71,6.16,10.43c0.22,0.42,0.43,0.84,0.64,1.26c0.47,0.93,0.93,1.86,1.38,2.79
					c0.15,0.31,0.3,0.63,0.45,0.94c0.65,1.36,1.26,2.7,1.85,4.02c0.14,0.31,0.28,0.62,0.41,0.92c0.25,0.56,0.49,1.12,0.72,1.67
					c0.15,0.34,0.3,0.69,0.44,1.02c1.2,2.83,2.23,5.39,3.02,7.45h0.01c0.13,0.34,0.26,0.67,0.38,0.98c0.54,1.42,0.95,2.54,1.2,3.25
					c0.01,0,0.01,0,0.01,0C419.682,192.911,419.792,193.231,419.792,193.231z"/>
				<g>
					<path style="fill:#F75672;" d="M414.852,180.651c-0.1-0.01-0.2-0.02-0.3-0.03c-2.89-0.22-5.71,0.78-8.14,2.28
						c-2.31,1.44-4.34,3.5-7.16,3.85c-2.58,0.31-5.07-0.74-7.3-1.97v-0.1l0.02-1v-0.04c2.99,1.7,6.39,3.06,9.67,1.27
						c1.45-0.78,2.7-1.88,4.08-2.76c1.43-0.9,2.97-1.63,4.6-2.08c1.33-0.37,2.72-0.53,4.09-0.44
						C414.562,179.971,414.712,180.321,414.852,180.651z"/>
					<path style="fill:#F75672;" d="M391.702,201.801c0.1,0.04,0.2,0.07,0.3,0.1c-0.1,0.02-0.2,0.03-0.3,0.04V201.801z"/>
					<path style="fill:#F75672;" d="M419.792,193.231c0,0,0,0-0.01,0.01c-0.01,0.01-0.02,0.02-0.03,0.01
						c-2.71,0.79-5.21-1.41-7.36-2.79c-1.21-0.78-2.66-1.46-4.13-1.15c-1.45,0.31-2.15,1.63-2.71,2.87
						c-1.26,2.76-2.54,5.66-4.42,8.07c-0.56,0.15-1.12,0.28-1.69,0.41c0.01-0.01,0.02-0.02,0.03-0.03c1.12-1.08,1.91-2.46,2.66-3.8
						c0.76-1.34,1.45-2.72,2.09-4.11c0.53-1.17,0.98-2.44,1.92-3.36c1.99-1.95,4.9-0.99,6.93,0.35c1.73,1.14,4.2,3.23,6.39,2.62
						c0.01,0,0.01,0,0.01,0C419.682,192.911,419.792,193.231,419.792,193.231z"/>
					<path style="fill:#F75672;" d="M409.602,169.291c-0.96-0.32-1.93-0.64-2.89-0.96c-1.31-0.43-2.63-0.86-3.94-1.3
						c-1.16-0.39-2.33-0.82-3.28-1.6c-1.72-1.43-2.03-3.71-0.52-5.39c0.73-0.82,1.66-1.41,2.4-2.22c0.3-0.33,0.58-0.7,0.82-1.08
						c0.21,0.28,0.41,0.57,0.61,0.86c-0.21,0.32-0.46,0.64-0.73,0.93c-0.83,0.91-1.99,1.56-2.69,2.59
						c-0.76,1.13-0.39,2.44,0.53,3.34c0.99,0.97,2.4,1.36,3.68,1.79c1.79,0.59,3.58,1.18,5.37,1.78
						C409.182,168.451,409.392,168.871,409.602,169.291z"/>
					<path style="fill:#F75672;" d="M413.692,177.961c-0.25,0.13-0.49,0.25-0.71,0.36c-2.41,1.22-5.05,2.16-7.79,2.07
						c-2.42-0.08-4.83-0.99-6.42-2.86c-0.69-0.81-1.22-1.77-1.47-2.81c-0.33-1.38-0.09-2.84-0.51-4.2c-0.64-2.1-2.61-3.22-4.57-4.02
						v-0.2l0.02-0.87c2.08,0.82,4.17,1.92,5.19,3.99c0.63,1.3,0.56,2.69,0.69,4.1c0.11,1.32,0.63,2.53,1.54,3.51
						c3.67,3.97,9.45,2.21,13.62,0.01C413.422,177.351,413.562,177.661,413.692,177.961z"/>
				</g>
			</g>
			<g>
				<g>
					<path style="fill:#9C1C38;" d="M351.752,166.638c0.046,7.463-0.011,14.926-0.172,22.387c-0.012,0.557,0.854,0.557,0.866,0
						c0.161-7.461,0.218-14.924,0.172-22.387C352.614,166.081,351.748,166.079,351.752,166.638z"/>
				</g>
				<path style="fill:#9C1C38;" d="M390.246,177.993c0.095-0.169,0.095-0.38-0.096-0.55c-0.006-0.006-0.013-0.012-0.019-0.018
					c-0.593-2.816-1.207-5.627-1.856-8.43c-0.145-0.627-1.109-0.362-0.964,0.266c0.537,2.321,1.05,4.647,1.548,6.976
					c-1.208-1.182-2.338-2.445-3.368-3.785c-0.164-0.214-0.43-0.328-0.684-0.179c-0.21,0.123-0.345,0.469-0.179,0.684
					c1.38,1.796,2.912,3.462,4.59,4.983c1.535,7.311,2.887,14.659,4.04,22.041c0.099,0.634,1.063,0.365,0.964-0.266
					C393.085,192.44,391.752,185.198,390.246,177.993z"/>
			</g>
		</g>
		<g>
			<g>
				<path style="fill:#F73859;" d="M353.115,96.522c-1.956-2.528-2.686-5.845-2.571-9.039c0.114-3.195,1.206-6.384,2.222-9.415
					c0.192,5.427,3.594,10.621,8.493,12.965c-0.419,1.859-1.672,3.142-3.241,4.225C356.45,96.34,355.003,96.788,353.115,96.522z"/>
				<path d="M394.985,107.437c0.622-2.566,0.902-5.397-0.18-7.783c-1.081-2.386-3.932-3.994-6.145-2.797
					c-1.716-4.618-5.923-8.064-10.54-8.636c-1.994-0.247-4.038,0.002-6.001-0.453c-1.469-0.341-2.832-1.063-4.235-1.644
					c-2.353-0.975-4.89-1.563-7.402-1.31c-2.513,0.253-5.001,1.411-6.629,3.473c-1.627,2.062-2.266,5.072-1.312,7.57
					c-0.984-0.079-1.941,0.506-2.566,1.322c-0.626,0.816-0.967,1.838-1.217,2.859c-1.48,6.044,0.003,12.74,3.558,17.7
					c3.555,4.96,9.041,8.185,14.813,9.169c5.25,0.895,10.635-0.019,15.524-2.176c2.078-0.917,3.509-1.926,5.112-3.677
					c1.642-1.794,3.075-3.805,4.26-5.972C393.331,112.694,394.337,110.116,394.985,107.437z"/>
				<path style="fill:#F08F69;" d="M384.207,125.71c0,0-5.271,10.003-5.897,23.554c-3.051,6.043-11.314,4.817-13.157-0.771
					c0.3-5.151-0.514-7.603-2.091-9.437c-0.129-0.154-0.257-0.291-0.394-0.437c-0.094-0.103-0.189-0.197-0.292-0.292
					c-0.188-0.188-0.403-0.36-0.608-0.548c-1.423-1.226-3.214-2.383-5.246-4.329c-2.383-2.263-4.106-5.323-4.646-10.063
					c-0.009-0.069-0.017-0.137-0.026-0.206c-0.008-0.12-0.017-0.231-0.026-0.351c-0.009-0.051-0.009-0.103-0.017-0.154
					c-0.377-4.534,0.249-10.551,2.306-18.814c2.134-8.571,23.254-11.057,28.568,0.197
					C384.867,108.704,384.207,125.71,384.207,125.71z"/>
				<path d="M353.71,103.338c0.866,0.911,2.091,1.383,3.293,1.75c6.321,1.933,13.279,1.714,19.467-0.611
					c-0.764,0.673-0.949,1.913-0.414,2.779c0.535,0.866,1.727,1.256,2.671,0.874c-0.482,0.218-0.776,0.788-0.675,1.307
					c0.101,0.519,0.587,0.937,1.116,0.958c0.532,3.864,2.734,7.469,5.93,9.706c1.157-3.527,1.651-7.48,1.103-11.152
					c-0.548-3.672-2.247-7.231-5.047-9.669c-2.996-2.608-7.027-3.771-10.991-4.019c-3.209-0.201-6.497,0.165-9.446,1.447
					C357.768,97.992,355.04,100.41,353.71,103.338z"/>
				<g>
					<g>
						<path d="M368.938,120.084c-0.044,0.74-0.679,1.304-1.418,1.261c-0.74-0.044-1.304-0.679-1.261-1.419
							c0.044-0.74,0.679-1.304,1.418-1.261S368.982,119.344,368.938,120.084z"/>
						<path style="fill:#FFFFFF;" d="M367.62,119.638c-0.016,0.271-0.248,0.478-0.52,0.462c-0.271-0.016-0.477-0.248-0.461-0.52
							c0.016-0.271,0.249-0.478,0.519-0.461C367.43,119.135,367.636,119.368,367.62,119.638z"/>
					</g>
					<g>
						<path d="M358.577,119.473c-0.044,0.74-0.679,1.304-1.419,1.261c-0.74-0.044-1.304-0.679-1.26-1.418
							c0.043-0.74,0.679-1.304,1.418-1.261C358.056,118.098,358.621,118.733,358.577,119.473z"/>
						<path style="fill:#FFFFFF;" d="M357.259,119.028c-0.016,0.271-0.249,0.478-0.519,0.462c-0.271-0.016-0.478-0.249-0.462-0.519
							c0.016-0.271,0.249-0.478,0.52-0.462C357.068,118.524,357.275,118.757,357.259,119.028z"/>
					</g>
					<g>
						<path style="fill:#8E4136;" d="M364.929,125.989c-0.363-0.672-1.509-0.088-2.82-0.088c-1.311,0-2.457-0.584-2.82,0.088
							c-0.46,0.85,0.672,2.963,2.82,2.963C364.257,128.952,365.389,126.838,364.929,125.989z"/>
						<path style="fill:#C16B5B;" d="M364.746,127.394c-0.41-0.052-0.848-0.085-1.311-0.085c-1.526,0-2.833,0.314-3.442,0.763
							c0.501,0.498,1.212,0.88,2.117,0.88C363.4,128.952,364.314,128.188,364.746,127.394z"/>
						<path style="fill:#FFFFFF;" d="M362.109,126.637c1.171,0,2.165-0.278,2.529-0.91c-0.518-0.208-1.469,0.173-2.529,0.173
							c-1.059,0-2.011-0.381-2.529-0.173C359.944,126.36,360.938,126.637,362.109,126.637z"/>
					</g>
					<path style="fill:#CC7656;" d="M360.027,123.204c-0.076-0.004-0.143-0.058-0.161-0.136c-0.264-1.162,0.147-1.527,0.538-1.629
						c0.397-0.102,0.858,0.026,1.37,0.385c0.079,0.056,0.098,0.165,0.043,0.245c-0.057,0.078-0.167,0.097-0.245,0.043
						c-0.422-0.297-0.786-0.409-1.079-0.332c-0.351,0.09-0.447,0.498-0.285,1.212c0.021,0.094-0.038,0.188-0.132,0.21
						C360.06,123.204,360.043,123.205,360.027,123.204z"/>
				</g>
				<g>
					<path style="fill:#F08F69;" d="M388.764,126.369c-1.918,2.032-4.781,2.444-6.394,0.922c-1.613-1.523-1.365-4.404,0.554-6.436
						c1.918-2.032,4.781-2.444,6.393-0.922C390.93,121.456,390.682,124.337,388.764,126.369z"/>
					<path style="fill:#CC7656;" d="M388.086,120.91c-0.738-0.448-1.756-0.489-2.72-0.108c-0.481,0.189-0.836,0.434-1.087,0.747
						c-0.332,0.414-0.449,0.952-0.305,1.404c0.128,0.405,0.429,0.681,0.694,0.924c0.192,0.176,0.374,0.343,0.471,0.534
						c0.149,0.294,0.083,0.691-0.152,0.922c-0.235,0.23-0.633,0.286-0.924,0.13c-0.172-0.092-0.383-0.027-0.475,0.144
						c-0.091,0.17-0.027,0.383,0.144,0.475c0.187,0.1,0.393,0.155,0.602,0.167c0.416,0.025,0.843-0.12,1.144-0.415
						c0.453-0.444,0.574-1.175,0.287-1.74c-0.154-0.305-0.403-0.533-0.622-0.734c-0.22-0.202-0.428-0.393-0.5-0.62
						c-0.072-0.227,0-0.522,0.184-0.752c0.074-0.093,0.173-0.174,0.281-0.253c0.348,0.018,0.777,0.15,0.983,0.403
						c0.232,0.286,0.326,0.686,0.245,1.044c-0.043,0.189,0.076,0.376,0.265,0.419c0.019,0.005,0.038,0.007,0.057,0.008
						c0.168,0.01,0.324-0.103,0.362-0.273c0.13-0.571-0.014-1.184-0.384-1.641c-0.138-0.169-0.315-0.289-0.503-0.389
						c0.589-0.122,1.159-0.057,1.588,0.203c0.531,0.322,0.901,1.094,0.583,1.686c-0.091,0.171-0.027,0.383,0.144,0.475
						c0.171,0.091,0.383,0.027,0.475-0.144C389.385,122.665,389.001,121.466,388.086,120.91z"/>
				</g>
				<path d="M371.364,113.742c-0.138-0.427-0.605-0.759-1.065-0.605c-1.553,0.519-3.125,0.979-4.71,1.388
					c-0.266-0.044-0.545,0.012-0.738,0.222c-0.309,0.337-0.352,0.893,0,1.225c0.344,0.323,0.668,0.364,1.113,0.25
					c0.222-0.057,0.443-0.115,0.664-0.174c0.458-0.122,0.915-0.249,1.37-0.381c0.926-0.268,1.846-0.555,2.761-0.861
					C371.188,114.664,371.513,114.204,371.364,113.742z"/>
				<path d="M359.894,114.26c-0.119-0.027-0.232-0.03-0.339-0.016c-0.061-0.032-0.122-0.064-0.183-0.096
					c-0.18-0.095-0.361-0.189-0.541-0.284c-0.348-0.183-0.696-0.365-1.044-0.548c-0.709-0.372-1.418-0.744-2.126-1.116
					c-0.401-0.21-0.96-0.116-1.185,0.311c-0.211,0.399-0.118,0.96,0.311,1.185c0.863,0.453,1.727,0.906,2.59,1.359
					c0.425,0.223,0.85,0.446,1.276,0.669c0.273,0.143,0.532,0.298,0.846,0.323c0.488,0.04,0.839-0.297,1.001-0.722
					C360.66,114.901,360.32,114.358,359.894,114.26z"/>
				<path style="fill:#F73859;" d="M382.603,100.544c2.504-1.988,4.005-5.033,4.657-8.163c0.652-3.13,0.354-6.487,0.092-9.673
					c-1.483,5.224-6.028,9.454-11.345,10.559c-0.037,1.906,0.873,3.451,2.137,4.877C379.408,99.571,380.706,100.351,382.603,100.544
					z"/>
			</g>
		</g>
	</g>
	<g>
		<g>
			<g>
				<g>
					<path style="fill:#384259;" d="M124.502,440.021l0.044,0.291c0.044,0.432,0.097,0.847,0.177,1.297
						c0.088,0.371,0.159,0.777,0.238,1.192h44.53c0,0,0.071-0.459,0.071-1.183c-0.018-0.371-0.044-0.803-0.124-1.306
						c-0.018-0.088-0.026-0.194-0.062-0.291c-0.485-2.507-2.313-5.967-8.394-7.079c-0.291-0.071-0.6-0.106-0.936-0.15h-0.026
						c-0.477-0.071-0.953-0.115-1.465-0.159c-0.168-0.009-0.335-0.026-0.503-0.035c-12.181-0.953-17.574-5.04-17.574-5.04
						s-7.061,1.412-13.681,0c0,0-0.777,1.289-1.465,3.531c-0.106,0.379-0.221,0.785-0.327,1.218
						c-0.026,0.079-0.044,0.168-0.071,0.265c-0.044,0.168-0.079,0.362-0.115,0.556c-0.009,0.053-0.026,0.124-0.026,0.177
						c0,0.044-0.026,0.062-0.026,0.097c-0.177,0.918-0.309,1.924-0.362,3.01C124.352,437.541,124.361,438.75,124.502,440.021z"/>
					<path style="fill:#222B3D;" d="M124.502,440.021l0.044,0.291c0.044,0.432,0.097,0.847,0.177,1.297
						c0.088,0.371,0.159,0.777,0.238,1.192h11.236c0.274-3.204-1.192-6.496-3.61-8.641c-2.004-1.774-4.59-2.78-7.255-3.072
						c-0.106,0.379-0.221,0.785-0.327,1.218c-0.026,0.079-0.044,0.168-0.071,0.265c-0.044,0.168-0.079,0.362-0.115,0.556
						c-0.009,0.053-0.026,0.124-0.026,0.177c0,0.044-0.026,0.062-0.026,0.097c-0.177,0.918-0.309,1.924-0.362,3.01
						C124.352,437.541,124.361,438.75,124.502,440.021z"/>
					<path style="fill:#222B3D;" d="M156.357,441.61c0.088,0.477,0.662,0.741,1.086,0.618c0.494-0.132,0.697-0.618,0.618-1.086
						c-0.503-2.886,0.229-5.976,1.96-8.35c-0.477-0.071-0.953-0.115-1.465-0.159c-0.168-0.009-0.335-0.026-0.503-0.035
						C156.428,435.281,155.81,438.477,156.357,441.61z"/>
					<path style="fill:#FFFFFF;" d="M144.899,427.919c-0.152-0.139-0.351-0.243-0.563-0.233c-0.224,0.01-0.388,0.095-0.563,0.233
						c-0.122,0.097-0.245,0.193-0.369,0.289c-0.587,0.453-1.184,0.892-1.792,1.317c-0.173,0.121-0.308,0.266-0.366,0.475
						c-0.053,0.191-0.029,0.444,0.08,0.613c0.218,0.338,0.724,0.541,1.089,0.286c0.847-0.592,1.673-1.213,2.482-1.855
						c0.149-0.118,0.233-0.382,0.233-0.563C145.132,428.287,145.045,428.054,144.899,427.919z"/>
					<path style="fill:#FFFFFF;" d="M148.051,429.337c-0.298-0.274-0.836-0.337-1.126,0c-0.583,0.678-1.233,1.294-1.938,1.844
						c-0.113,0.085-0.226,0.17-0.342,0.252c-0.173,0.122-0.308,0.265-0.366,0.476c-0.052,0.19-0.029,0.444,0.08,0.613
						c0.217,0.337,0.725,0.543,1.089,0.286c0.957-0.677,1.837-1.455,2.601-2.344c0.14-0.162,0.233-0.342,0.233-0.563
						C148.284,429.705,148.197,429.471,148.051,429.337z"/>
					<path style="fill:#FFFFFF;" d="M150.949,430.366c-0.152-0.139-0.351-0.243-0.563-0.233c-0.195,0.009-0.437,0.071-0.563,0.233
						l-1.805,2.321c-0.135,0.174-0.233,0.332-0.233,0.563c0,0.195,0.087,0.428,0.233,0.563c0.152,0.139,0.351,0.243,0.563,0.233
						c0.195-0.009,0.437-0.071,0.563-0.233l1.805-2.321c0.136-0.174,0.233-0.332,0.233-0.563
						C151.182,430.733,151.095,430.5,150.949,430.366z"/>
					<path style="fill:#FFFFFF;" d="M154.163,431.116c-0.381-0.202-0.865-0.099-1.089,0.285c-0.402,0.688-0.805,1.376-1.207,2.065
						c-0.21,0.36-0.095,0.888,0.285,1.089c0.381,0.202,0.865,0.099,1.089-0.285c0.402-0.688,0.805-1.376,1.207-2.065
						C154.658,431.845,154.543,431.316,154.163,431.116z"/>
					<path style="fill:#FFFFFF;" d="M124.541,440.318c0.051,0.42,0.103,0.849,0.189,1.286c0.077,0.386,0.146,0.789,0.24,1.2h44.52
						c0,0,0.077-0.454,0.077-1.183c-0.017-0.377-0.043-0.814-0.129-1.303H124.541z"/>
				</g>
				<g>
					<path style="fill:#384259;" d="M56.406,440.021l0.044,0.291c0.044,0.432,0.097,0.847,0.177,1.297
						c0.088,0.371,0.159,0.777,0.238,1.192h44.53c0,0,0.071-0.459,0.071-1.183c-0.018-0.371-0.044-0.803-0.124-1.306
						c-0.018-0.088-0.026-0.194-0.062-0.291c-0.485-2.507-2.313-5.967-8.394-7.079c-0.291-0.071-0.6-0.106-0.936-0.15h-0.026
						c-0.477-0.071-0.953-0.115-1.465-0.159c-0.168-0.009-0.335-0.026-0.503-0.035c-12.181-0.953-17.574-5.04-17.574-5.04
						s-7.061,1.412-13.681,0c0,0-0.777,1.289-1.465,3.531c-0.106,0.379-0.221,0.785-0.327,1.218
						c-0.026,0.079-0.044,0.168-0.071,0.265c-0.044,0.168-0.08,0.362-0.115,0.556c-0.009,0.053-0.026,0.124-0.026,0.177
						c0,0.044-0.026,0.062-0.026,0.097c-0.177,0.918-0.309,1.924-0.362,3.01C56.256,437.541,56.265,438.75,56.406,440.021z"/>
					<path style="fill:#222B3D;" d="M56.406,440.021l0.044,0.291c0.044,0.432,0.097,0.847,0.177,1.297
						c0.088,0.371,0.159,0.777,0.238,1.192h11.236c0.274-3.204-1.192-6.496-3.61-8.641c-2.004-1.774-4.59-2.78-7.255-3.072
						c-0.106,0.379-0.221,0.785-0.327,1.218c-0.026,0.079-0.044,0.168-0.071,0.265c-0.044,0.168-0.08,0.362-0.115,0.556
						c-0.009,0.053-0.026,0.124-0.026,0.177c0,0.044-0.026,0.062-0.026,0.097c-0.177,0.918-0.309,1.924-0.362,3.01
						C56.256,437.541,56.265,438.75,56.406,440.021z"/>
					<path style="fill:#222B3D;" d="M88.261,441.61c0.088,0.477,0.662,0.741,1.086,0.618c0.494-0.132,0.697-0.618,0.618-1.086
						c-0.503-2.886,0.229-5.976,1.96-8.35c-0.477-0.071-0.953-0.115-1.465-0.159c-0.168-0.009-0.335-0.026-0.503-0.035
						C88.332,435.281,87.714,438.477,88.261,441.61z"/>
					<path style="fill:#FFFFFF;" d="M76.803,427.919c-0.152-0.139-0.351-0.243-0.563-0.233c-0.224,0.01-0.388,0.095-0.563,0.233
						c-0.122,0.097-0.245,0.193-0.369,0.289c-0.587,0.453-1.184,0.892-1.792,1.317c-0.173,0.121-0.308,0.266-0.366,0.475
						c-0.052,0.191-0.029,0.444,0.08,0.613c0.218,0.338,0.724,0.541,1.089,0.286c0.847-0.592,1.673-1.213,2.482-1.855
						c0.149-0.118,0.233-0.382,0.233-0.563C77.036,428.287,76.949,428.054,76.803,427.919z"/>
					<path style="fill:#FFFFFF;" d="M79.955,429.337c-0.298-0.274-0.836-0.337-1.125,0c-0.583,0.678-1.233,1.294-1.938,1.844
						c-0.113,0.085-0.226,0.17-0.341,0.252c-0.173,0.122-0.308,0.265-0.366,0.476c-0.053,0.19-0.029,0.444,0.08,0.613
						c0.217,0.337,0.725,0.543,1.089,0.286c0.957-0.677,1.837-1.455,2.601-2.344c0.14-0.162,0.233-0.342,0.233-0.563
						C80.188,429.705,80.101,429.471,79.955,429.337z"/>
					<path style="fill:#FFFFFF;" d="M82.853,430.366c-0.152-0.139-0.351-0.243-0.563-0.233c-0.195,0.009-0.437,0.071-0.563,0.233
						l-1.805,2.321c-0.135,0.174-0.233,0.332-0.233,0.563c0,0.195,0.087,0.428,0.233,0.563c0.152,0.139,0.351,0.243,0.563,0.233
						c0.195-0.009,0.437-0.071,0.563-0.233l1.805-2.321c0.136-0.174,0.233-0.332,0.233-0.563
						C83.086,430.733,82.999,430.5,82.853,430.366z"/>
					<path style="fill:#FFFFFF;" d="M86.067,431.116c-0.381-0.202-0.865-0.099-1.089,0.285c-0.402,0.688-0.805,1.376-1.207,2.065
						c-0.21,0.36-0.095,0.888,0.285,1.089c0.381,0.202,0.865,0.099,1.089-0.285c0.402-0.688,0.805-1.376,1.207-2.065
						C86.562,431.845,86.447,431.316,86.067,431.116z"/>
					<path style="fill:#FFFFFF;" d="M56.445,440.318c0.051,0.42,0.103,0.849,0.189,1.286c0.077,0.386,0.146,0.789,0.24,1.2h44.52
						c0,0,0.077-0.454,0.077-1.183c-0.017-0.377-0.043-0.814-0.129-1.303H56.445z"/>
				</g>
				<path style="fill:#FFBDA3;" d="M140.439,427.554c0,0,8.361-63.916,9.618-85.52c1.258-21.6-8.347-59.166-17.008-86.453H96.014
					c0,0,26.828,64.599,27.712,86.286c0.875,21.45,3.202,59.662,3.035,85.687C126.761,427.554,135.181,430.404,140.439,427.554z"/>
				<path style="fill:#FFBDA3;" d="M59.447,427.554c0,0,4.581-120.364,8.673-171.973h33.411c0,0-7.136,80.796-28.406,171.973
					C73.124,427.554,67.326,428.903,59.447,427.554z"/>
			</g>
			<g>
				<path style="fill:#498E89;" d="M58.168,420.917c0.762,0.208,1.827,0.346,3.074,0.433c0.277,0.017,0.563,0.035,0.857,0.043
					c6.27,0.312,16.004-0.476,16.004-0.476c13.285-65.159,24.907-144.278,24.907-144.278s16.809,53.398,17.693,57.824
					c0.883,4.417,0.667,86.454,0.667,86.454c1.888,0.468,3.888,0.753,5.889,0.909c0.286,0.026,0.58,0.043,0.866,0.061
					c8.21,0.52,16.125-0.97,16.125-0.97s9.699-65.964,8.911-91.026c-0.788-25.062-19.26-74.313-19.26-74.313H68.119
					C64.845,287.698,58.168,420.917,58.168,420.917z"/>
				<g>
					<path style="fill:#3A706C;" d="M61.242,421.349c0.277,0.017,0.563,0.035,0.857,0.043c0.961-10.279,1.905-20.55,2.849-30.839
						c1.81-19.615,3.62-39.23,5.43-58.854c1.81-19.719,3.629-39.43,5.447-59.149c0.009-0.069,0-0.121-0.017-0.173
						c4.451-0.381,8.755-2.2,12.081-5.248c0.407-0.381-0.208-0.987-0.615-0.615c-4.521,4.157-11.024,5.941-17.034,4.685
						c-0.546-0.113-0.771,0.719-0.234,0.831c1.654,0.346,3.326,0.476,4.988,0.398c-0.009,0.035-0.026,0.069-0.035,0.121l-3.04,33.03
						c-1.81,19.615-3.62,39.23-5.43,58.854C64.741,383.409,62.992,402.384,61.242,421.349z"/>
					<path style="fill:#3A706C;" d="M103.426,274.5c0.545-0.364,1.048-0.779,1.507-1.23c0.485,1.013,0.97,2.035,1.464,3.057
						l13.51,28.336c4.304,9.024,8.721,18.056,9.838,28.128c0.554,5.04,0.494,10.132,0.32,15.198
						c-0.173,5.179-0.39,10.349-0.589,15.528c-0.398,10.531-0.797,21.07-1.204,31.601c-0.338,8.903-0.675,17.805-1.013,26.708
						c0.286,0.026,0.58,0.043,0.866,0.061c0.39-10.349,0.788-20.715,1.178-31.064c0.407-10.531,0.805-21.07,1.204-31.601
						c0.39-10.15,1.368-20.576-0.511-30.631c-1.836-9.795-6.668-18.775-10.92-27.686c-4.503-9.44-9.007-18.879-13.51-28.319
						c1.888-2.278,2.754-5.361,2.208-8.323c-0.104-0.546-0.935-0.312-0.84,0.234c0.658,3.516-0.961,7.292-3.94,9.258
						C102.525,274.058,102.958,274.803,103.426,274.5z"/>
				</g>
			</g>
		</g>
		<g>
			<g>
				<path style="fill:#FFBDA3;" d="M140.076,153.785c12.585,6.331,30.66,32.451,31.544,32.503
					c0.884,0.052,22.116-40.961,22.116-40.961l9.849,4.226c0,0-17.283,56.664-28.707,58.755
					c-14.394,2.634-35.591-21.984-35.591-21.984L140.076,153.785z"/>
				<path style="fill:#7AC7C4;" d="M140.076,153.785c12.364,5.336,31.956,29.953,31.956,29.953s-6.818,15.363-15.772,23.069
					l-18.855-18.831L140.076,153.785z"/>
				<path style="fill:#FFBDA3;" d="M194.918,149.563c0,0,4.268,2.682,8.167,0.553c3.832-2.093,4.325-5.468,4.325-5.468
					s5.89,3.226,7.128,2.4c1.238-0.825-5.018-5.148-5.018-5.148s7.803,0.975,8.056-0.291c0.253-1.266-8-2.916-8-2.916
					s8.196-2.701,7.652-4.371c-0.544-1.669-10.682,1.636-10.682,1.636s3.674-6.651,2.288-7.459
					c-1.995-1.163-10.569,10.42-10.691,10.298c-0.122-0.122-2.636-6.569-5.027-5.101c-2.307,1.416,0.779,3.545,0.572,6.771
					C193.593,141.965,192.339,147.462,194.918,149.563z"/>
			</g>
			<g>
				<g>
					<g>
						<g>
							<g>
								<g>
									<g>
										<g>
											<path style="fill:#7AC7C4;" d="M65.971,258.022c0.894,2.819,34.24,19.454,73.147,12.453
												c1.251-0.223,0.958-116.646,0.958-116.646l-12.93-5.872l-13.288-1.501l-14.263,2.101
												C99.595,148.558,63.216,249.333,65.971,258.022z"/>
										</g>
									</g>
								</g>
							</g>
						</g>
					</g>
				</g>
			</g>
			<g>
				<g>
					<path style="fill:#FFBDA3;" d="M99.595,148.558c-15.373,2.603-43.866,37.26-45.918,48.52
						c-1.769,9.709,18.557,61.532,18.557,61.532L82.6,256.56c0,0-10.06-51.63-9.617-54.434c0.442-2.804,17.282-19.347,17.282-19.347
						L99.595,148.558z"/>
					<path style="fill:#FFBDA3;" d="M82.6,256.56c0,0,0.048,0.029,0.138,0.083c1.17,0.707,7.348,5.929,6.736,7.578
						c-0.539,1.453-5.321-1.143-5.321-1.143s5.141,10.65,3.611,11.424c-2,1.012-5.773-7.976-5.773-7.976s3.689,10.965,2.235,11.44
						c-1.916,0.626-6.044-10.281-6.044-10.281s2.422,9.395,0.931,9.729c-2.101,0.47-4.108-9.395-4.108-9.395
						s0.396,5.701-0.894,5.775s-2.764-9.646-1.877-15.184L82.6,256.56z"/>
				</g>
				<path style="fill:#7AC7C4;" d="M99.595,148.558c-14.962,2.382-41.431,35.33-41.431,35.33s2.441,10.43,19.245,19.696
					l14.593-20.657L99.595,148.558z"/>
			</g>
			<g>
				<path style="fill:#3A706C;" d="M83.597,193.859c4.23-4.788,8.252-9.756,12.052-14.893c0.328-0.443,1.08-0.012,0.748,0.437
					c-1.036,1.4-2.091,2.786-3.159,4.162c1.172-0.255,2.364-0.422,3.562-0.496c0.557-0.035,0.555,0.831,0,0.866
					c-1.475,0.092-2.931,0.332-4.359,0.711c-0.022,0.006-0.039,0.001-0.06,0.004c-2.632,3.348-5.35,6.628-8.17,9.821
					C83.84,194.889,83.229,194.275,83.597,193.859z"/>
				<path style="fill:#3A706C;" d="M140.325,166.638c-0.046,7.463,0.011,14.926,0.172,22.387c0.012,0.557-0.854,0.557-0.866,0
					c-0.16-7.461-0.218-14.924-0.172-22.387C139.462,166.081,140.328,166.079,140.325,166.638z"/>
				<path style="fill:#3A706C;" d="M86.393,203.63c-0.261-0.492,0.486-0.93,0.748-0.437c1.827,3.449,4.917,6.155,8.596,7.473
					c0.521,0.187,0.296,1.024-0.23,0.835C91.619,210.108,88.327,207.283,86.393,203.63z"/>
				<path style="fill:#3A706C;" d="M86.743,206.486c1.422,1.624,3.022,3.088,4.777,4.346c0.19,0.136,0.281,0.377,0.155,0.592
					c-0.11,0.188-0.401,0.292-0.592,0.155c-1.816-1.302-3.48-2.8-4.952-4.482C85.765,206.68,86.375,206.065,86.743,206.486z"/>
			</g>
		</g>
		<g>
			<g>
				<path d="M105.974,121.138c-3.862-4.78-5.821-11.124-5.348-17.315c0.078-1.025,0.241-2.096,0.853-2.913
					c0.81-1.081,2.385-1.474,3.587-0.895c0.347-1.786,1.548-3.543,2.786-4.853c1.238-1.31,2.731-2.34,4.264-3.268
					c3.127-1.895,6.502-3.423,10.068-4.135c3.565-0.712,7.336-0.579,10.725,0.745c3.389,1.324,6.361,3.898,7.879,7.267
					s1.454,7.525-0.462,10.684c1.263,3.828,1.255,8.33-0.047,12.152C129.304,121.883,117.208,123.217,105.974,121.138z"/>
				<path style="fill:#FFBDA3;" d="M107.87,125.71c0,0,5.271,10.003,5.897,23.554c3.051,6.043,11.314,4.817,13.157-0.771
					c-0.3-5.151,0.514-7.603,2.091-9.437c0.128-0.154,0.257-0.291,0.394-0.437c0.094-0.103,0.189-0.197,0.291-0.292
					c0.189-0.188,0.403-0.36,0.609-0.548c1.423-1.226,3.214-2.383,5.246-4.329c2.383-2.263,4.106-5.323,4.646-10.063
					c0.008-0.069,0.017-0.137,0.026-0.206c0.009-0.12,0.017-0.231,0.026-0.351c0.009-0.051,0.009-0.103,0.017-0.154
					c0.377-4.534-0.249-10.551-2.306-18.814c-2.134-8.571-23.254-11.057-28.568,0.197C107.21,108.704,107.87,125.71,107.87,125.71z"
					/>
				<path d="M138.367,103.338c-0.866,0.911-2.091,1.383-3.293,1.75c-6.321,1.933-13.279,1.714-19.467-0.611
					c0.764,0.673,0.949,1.913,0.414,2.779c-0.535,0.866-1.727,1.256-2.671,0.874c0.482,0.218,0.776,0.788,0.675,1.307
					c-0.101,0.519-0.587,0.937-1.116,0.958c-0.532,3.864-2.734,7.469-5.93,9.706c-1.157-3.527-1.651-7.48-1.103-11.152
					c0.548-3.672,2.247-7.231,5.048-9.669c2.996-2.608,7.027-3.771,10.991-4.019c3.209-0.201,6.497,0.165,9.446,1.447
					C134.309,97.992,137.037,100.41,138.367,103.338z"/>
				<g>
					<g>
						<path d="M123.138,120.084c0.044,0.74,0.679,1.304,1.419,1.261c0.74-0.044,1.304-0.679,1.261-1.419
							c-0.044-0.74-0.679-1.304-1.419-1.261C123.659,118.709,123.095,119.344,123.138,120.084z"/>
						<path style="fill:#FFFFFF;" d="M124.456,119.638c0.016,0.271,0.248,0.478,0.52,0.462c0.271-0.016,0.478-0.248,0.462-0.52
							c-0.016-0.271-0.249-0.478-0.519-0.461C124.647,119.135,124.44,119.368,124.456,119.638z"/>
					</g>
					<g>
						<path d="M133.5,119.473c0.044,0.74,0.679,1.304,1.419,1.261c0.74-0.044,1.304-0.679,1.26-1.418s-0.679-1.304-1.419-1.261
							C134.02,118.098,133.456,118.733,133.5,119.473z"/>
						<path style="fill:#FFFFFF;" d="M134.818,119.028c0.016,0.271,0.249,0.478,0.519,0.462c0.271-0.016,0.478-0.249,0.462-0.519
							c-0.016-0.271-0.249-0.478-0.52-0.462C135.008,118.524,134.802,118.757,134.818,119.028z"/>
					</g>
					<g>
						<path style="fill:#8E4136;" d="M127.147,125.989c0.364-0.672,1.509-0.088,2.82-0.088c1.311,0,2.457-0.584,2.82,0.088
							c0.46,0.85-0.672,2.963-2.82,2.963C127.819,128.952,126.688,126.838,127.147,125.989z"/>
						<path style="fill:#C16B5B;" d="M127.331,127.394c0.41-0.052,0.848-0.085,1.311-0.085c1.526,0,2.833,0.314,3.443,0.763
							c-0.501,0.498-1.212,0.88-2.117,0.88C128.677,128.952,127.763,128.188,127.331,127.394z"/>
						<path style="fill:#FFFFFF;" d="M129.968,126.637c-1.171,0-2.165-0.278-2.529-0.91c0.518-0.208,1.469,0.173,2.529,0.173
							c1.059,0,2.011-0.381,2.529-0.173C132.133,126.36,131.138,126.637,129.968,126.637z"/>
					</g>
					<path style="fill:#CC7656;" d="M132.049,123.204c0.076-0.004,0.143-0.058,0.161-0.136c0.264-1.162-0.147-1.527-0.538-1.629
						c-0.397-0.102-0.858,0.026-1.37,0.385c-0.079,0.056-0.098,0.165-0.042,0.245c0.057,0.078,0.167,0.097,0.245,0.043
						c0.422-0.297,0.786-0.409,1.079-0.332c0.351,0.09,0.447,0.498,0.285,1.212c-0.021,0.094,0.038,0.188,0.132,0.21
						C132.016,123.204,132.034,123.205,132.049,123.204z"/>
				</g>
				<g>
					<path style="fill:#FFBDA3;" d="M103.313,126.369c1.918,2.032,4.781,2.444,6.394,0.922c1.613-1.523,1.365-4.404-0.554-6.436
						c-1.918-2.032-4.781-2.444-6.394-0.922C101.147,121.456,101.394,124.337,103.313,126.369z"/>
					<path style="fill:#CC7656;" d="M103.991,120.91c0.738-0.448,1.756-0.489,2.72-0.108c0.481,0.189,0.836,0.434,1.087,0.747
						c0.332,0.414,0.449,0.952,0.305,1.404c-0.128,0.405-0.429,0.681-0.694,0.924c-0.192,0.176-0.374,0.343-0.471,0.534
						c-0.149,0.294-0.083,0.691,0.153,0.922c0.235,0.23,0.632,0.286,0.924,0.13c0.172-0.092,0.383-0.027,0.475,0.144
						c0.091,0.17,0.027,0.383-0.144,0.475c-0.187,0.1-0.393,0.155-0.602,0.167c-0.416,0.025-0.843-0.12-1.144-0.415
						c-0.453-0.444-0.574-1.175-0.287-1.74c0.154-0.305,0.403-0.533,0.622-0.734c0.22-0.202,0.428-0.393,0.5-0.62
						c0.072-0.227,0-0.522-0.184-0.752c-0.074-0.093-0.173-0.174-0.281-0.253c-0.348,0.018-0.777,0.15-0.983,0.403
						c-0.232,0.286-0.325,0.686-0.245,1.044c0.043,0.189-0.076,0.376-0.265,0.419c-0.019,0.005-0.038,0.007-0.057,0.008
						c-0.168,0.01-0.324-0.103-0.362-0.273c-0.13-0.571,0.014-1.184,0.384-1.641c0.138-0.169,0.316-0.289,0.503-0.389
						c-0.589-0.122-1.159-0.057-1.588,0.203c-0.531,0.322-0.901,1.094-0.583,1.686c0.091,0.171,0.027,0.383-0.144,0.475
						c-0.171,0.091-0.383,0.027-0.475-0.144C102.691,122.665,103.075,121.466,103.991,120.91z"/>
				</g>
				<path d="M136.892,113.952c-1.671-0.749-3.625-0.688-5.2,0.282c-0.386,0.237-0.568,0.785-0.311,1.185
					c0.249,0.387,0.772,0.565,1.185,0.311c0.158-0.098,0.322-0.181,0.488-0.264c0.017-0.007,0.013-0.006,0.023-0.011
					c0.03-0.012,0.06-0.024,0.09-0.035c0.065-0.024,0.131-0.047,0.197-0.068c0.176-0.056,0.356-0.102,0.538-0.137
					c0.046-0.009,0.338-0.081,0.113-0.022c0.075-0.02,0.165-0.017,0.242-0.022c0.173-0.011,0.347-0.013,0.521-0.005
					c0.093,0.004,0.184,0.014,0.277,0.021c0.01,0.001,0.013,0.001,0.02,0.001c0.013,0.003,0.031,0.006,0.059,0.011
					c0.171,0.03,0.34,0.069,0.506,0.118c0.089,0.026,0.177,0.055,0.264,0.087c0.034,0.013,0.069,0.026,0.103,0.039
					c0.006,0.003,0.003,0.002,0.011,0.005c0.002,0.001,0.005,0.001,0.008,0.002c0.003,0.001,0.005,0.002,0.008,0.003
					c-0.004-0.002-0.002-0.001-0.006-0.002c0.411,0.18,0.942,0.127,1.175-0.313C137.403,114.758,137.334,114.15,136.892,113.952z"/>
				<path d="M126.758,113.952c-1.671-0.749-3.625-0.688-5.2,0.282c-0.386,0.237-0.568,0.785-0.311,1.185
					c0.249,0.387,0.772,0.565,1.185,0.311c0.159-0.098,0.322-0.181,0.488-0.264c0.017-0.007,0.013-0.006,0.023-0.011
					c0.03-0.012,0.06-0.024,0.09-0.035c0.065-0.024,0.131-0.047,0.197-0.068c0.176-0.056,0.356-0.102,0.538-0.137
					c0.046-0.009,0.338-0.081,0.113-0.022c0.075-0.02,0.165-0.017,0.242-0.022c0.173-0.011,0.347-0.013,0.521-0.005
					c0.093,0.004,0.185,0.014,0.277,0.021c0.01,0.001,0.013,0.001,0.02,0.001c0.013,0.003,0.032,0.006,0.059,0.011
					c0.171,0.03,0.34,0.069,0.506,0.118c0.089,0.026,0.177,0.055,0.264,0.087c0.035,0.013,0.069,0.026,0.103,0.039
					c0.006,0.003,0.003,0.002,0.011,0.005c0.002,0.001,0.005,0.001,0.007,0.002c0.003,0.001,0.005,0.002,0.008,0.003
					c-0.003-0.002-0.002-0.001-0.005-0.002c0.411,0.18,0.942,0.127,1.175-0.313C127.269,114.758,127.199,114.15,126.758,113.952z"/>
			</g>
		</g>
		<path style="fill:#7AC7C4;" d="M121.127,68.716c-11.73,0-21.24,2.582-21.24,5.766c0,3.185,9.509,5.766,21.24,5.766
			c11.731,0,21.24-2.582,21.24-5.766C142.367,71.298,132.858,68.716,121.127,68.716z M121.127,78.722
			c-9.424,0-17.064-1.898-17.064-4.24c0-2.342,7.64-4.24,17.064-4.24s17.064,1.898,17.064,4.24
			C138.191,76.824,130.552,78.722,121.127,78.722z"/>
	</g>
	<g>
		<g>
			<g>
				<g>
					<path style="fill:#F73859;" d="M230.472,440.021l-0.044,0.291c-0.044,0.432-0.097,0.847-0.176,1.297
						c-0.088,0.371-0.159,0.777-0.238,1.192h-44.53c0,0-0.071-0.459-0.071-1.183c0.018-0.371,0.044-0.803,0.124-1.306
						c0.018-0.088,0.027-0.194,0.062-0.291c0.486-2.507,2.313-5.967,8.394-7.079c0.291-0.071,0.6-0.106,0.936-0.15h0.026
						c0.477-0.071,0.953-0.115,1.465-0.159c0.168-0.009,0.335-0.026,0.503-0.035c12.181-0.953,17.574-5.04,17.574-5.04
						s7.061,1.412,13.681,0c0,0,0.777,1.289,1.465,3.531c0.106,0.379,0.221,0.785,0.327,1.218c0.026,0.079,0.044,0.168,0.071,0.265
						c0.044,0.168,0.079,0.362,0.115,0.556c0.009,0.053,0.026,0.124,0.026,0.177c0,0.044,0.027,0.062,0.027,0.097
						c0.176,0.918,0.309,1.924,0.362,3.01C230.622,437.541,230.613,438.75,230.472,440.021z"/>
					<path style="fill:#B52141;" d="M230.472,440.021l-0.044,0.291c-0.044,0.432-0.097,0.847-0.176,1.297
						c-0.088,0.371-0.159,0.777-0.238,1.192h-11.236c-0.274-3.204,1.192-6.496,3.61-8.641c2.004-1.774,4.59-2.78,7.255-3.072
						c0.106,0.379,0.221,0.785,0.327,1.218c0.026,0.079,0.044,0.168,0.071,0.265c0.044,0.168,0.079,0.362,0.115,0.556
						c0.009,0.053,0.026,0.124,0.026,0.177c0,0.044,0.027,0.062,0.027,0.097c0.176,0.918,0.309,1.924,0.362,3.01
						C230.622,437.541,230.613,438.75,230.472,440.021z"/>
					<path style="fill:#B52141;" d="M198.617,441.61c-0.088,0.477-0.662,0.741-1.086,0.618c-0.494-0.132-0.697-0.618-0.618-1.086
						c0.503-2.886-0.229-5.976-1.959-8.35c0.477-0.071,0.953-0.115,1.465-0.159c0.168-0.009,0.335-0.026,0.503-0.035
						C198.546,435.281,199.164,438.477,198.617,441.61z"/>
					<path style="fill:#FFFFFF;" d="M210.075,427.919c0.152-0.139,0.351-0.243,0.563-0.233c0.224,0.01,0.388,0.095,0.563,0.233
						c0.122,0.097,0.245,0.193,0.368,0.289c0.587,0.453,1.184,0.892,1.792,1.317c0.173,0.121,0.308,0.266,0.366,0.475
						c0.052,0.191,0.029,0.444-0.08,0.613c-0.218,0.338-0.724,0.541-1.089,0.286c-0.847-0.592-1.673-1.213-2.482-1.855
						c-0.149-0.118-0.233-0.382-0.233-0.563C209.842,428.287,209.929,428.054,210.075,427.919z"/>
					<path style="fill:#FFFFFF;" d="M206.923,429.337c0.298-0.274,0.836-0.337,1.125,0c0.583,0.678,1.233,1.294,1.938,1.844
						c0.113,0.085,0.226,0.17,0.341,0.252c0.173,0.122,0.308,0.265,0.366,0.476c0.053,0.19,0.029,0.444-0.08,0.613
						c-0.217,0.337-0.725,0.543-1.089,0.286c-0.957-0.677-1.837-1.455-2.601-2.344c-0.14-0.162-0.233-0.342-0.233-0.563
						C206.69,429.705,206.777,429.471,206.923,429.337z"/>
					<path style="fill:#FFFFFF;" d="M204.025,430.366c0.152-0.139,0.351-0.243,0.563-0.233c0.195,0.009,0.437,0.071,0.563,0.233
						l1.805,2.321c0.136,0.174,0.233,0.332,0.233,0.563c0,0.195-0.087,0.428-0.233,0.563c-0.152,0.139-0.351,0.243-0.563,0.233
						c-0.195-0.009-0.437-0.071-0.563-0.233l-1.805-2.321c-0.136-0.174-0.233-0.332-0.233-0.563
						C203.792,430.733,203.879,430.5,204.025,430.366z"/>
					<path style="fill:#FFFFFF;" d="M200.811,431.116c0.381-0.202,0.865-0.099,1.089,0.285c0.402,0.688,0.804,1.376,1.207,2.065
						c0.21,0.36,0.095,0.888-0.285,1.089c-0.382,0.202-0.865,0.099-1.089-0.285c-0.402-0.688-0.804-1.376-1.207-2.065
						C200.316,431.845,200.431,431.316,200.811,431.116z"/>
					<path style="fill:#FFFFFF;" d="M230.433,440.318c-0.051,0.42-0.103,0.849-0.189,1.286c-0.077,0.386-0.146,0.789-0.24,1.2
						h-44.52c0,0-0.077-0.454-0.077-1.183c0.017-0.377,0.043-0.814,0.129-1.303H230.433z"/>
				</g>
				<g>
					<path style="fill:#F73859;" d="M246.009,440.021l0.044,0.291c0.044,0.432,0.097,0.847,0.176,1.297
						c0.088,0.371,0.159,0.777,0.238,1.192h44.53c0,0,0.071-0.459,0.071-1.183c-0.018-0.371-0.044-0.803-0.124-1.306
						c-0.018-0.088-0.026-0.194-0.062-0.291c-0.486-2.507-2.313-5.967-8.394-7.079c-0.291-0.071-0.6-0.106-0.936-0.15h-0.026
						c-0.477-0.071-0.953-0.115-1.465-0.159c-0.168-0.009-0.335-0.026-0.503-0.035c-12.181-0.953-17.574-5.04-17.574-5.04
						s-7.061,1.412-13.681,0c0,0-0.777,1.289-1.465,3.531c-0.106,0.379-0.221,0.785-0.326,1.218
						c-0.027,0.079-0.044,0.168-0.071,0.265c-0.044,0.168-0.079,0.362-0.115,0.556c-0.009,0.053-0.026,0.124-0.026,0.177
						c0,0.044-0.027,0.062-0.027,0.097c-0.176,0.918-0.309,1.924-0.362,3.01C245.859,437.541,245.868,438.75,246.009,440.021z"/>
					<path style="fill:#B52141;" d="M246.009,440.021l0.044,0.291c0.044,0.432,0.097,0.847,0.176,1.297
						c0.088,0.371,0.159,0.777,0.238,1.192h11.236c0.274-3.204-1.192-6.496-3.61-8.641c-2.004-1.774-4.59-2.78-7.255-3.072
						c-0.106,0.379-0.221,0.785-0.326,1.218c-0.027,0.079-0.044,0.168-0.071,0.265c-0.044,0.168-0.079,0.362-0.115,0.556
						c-0.009,0.053-0.026,0.124-0.026,0.177c0,0.044-0.027,0.062-0.027,0.097c-0.176,0.918-0.309,1.924-0.362,3.01
						C245.859,437.541,245.868,438.75,246.009,440.021z"/>
					<path style="fill:#B52141;" d="M277.865,441.61c0.088,0.477,0.662,0.741,1.086,0.618c0.494-0.132,0.697-0.618,0.618-1.086
						c-0.503-2.886,0.229-5.976,1.959-8.35c-0.477-0.071-0.953-0.115-1.465-0.159c-0.168-0.009-0.335-0.026-0.503-0.035
						C277.935,435.281,277.317,438.477,277.865,441.61z"/>
					<path style="fill:#FFFFFF;" d="M266.406,427.919c-0.152-0.139-0.351-0.243-0.563-0.233c-0.224,0.01-0.388,0.095-0.563,0.233
						c-0.122,0.097-0.245,0.193-0.368,0.289c-0.587,0.453-1.184,0.892-1.792,1.317c-0.173,0.121-0.308,0.266-0.366,0.475
						c-0.053,0.191-0.029,0.444,0.08,0.613c0.218,0.338,0.724,0.541,1.089,0.286c0.847-0.592,1.673-1.213,2.482-1.855
						c0.149-0.118,0.233-0.382,0.233-0.563C266.639,428.287,266.552,428.054,266.406,427.919z"/>
					<path style="fill:#FFFFFF;" d="M269.558,429.337c-0.298-0.274-0.836-0.337-1.125,0c-0.583,0.678-1.233,1.294-1.938,1.844
						c-0.113,0.085-0.226,0.17-0.341,0.252c-0.173,0.122-0.308,0.265-0.366,0.476c-0.053,0.19-0.029,0.444,0.08,0.613
						c0.217,0.337,0.725,0.543,1.089,0.286c0.957-0.677,1.837-1.455,2.601-2.344c0.14-0.162,0.233-0.342,0.233-0.563
						C269.791,429.705,269.704,429.471,269.558,429.337z"/>
					<path style="fill:#FFFFFF;" d="M272.456,430.366c-0.152-0.139-0.351-0.243-0.563-0.233c-0.195,0.009-0.437,0.071-0.563,0.233
						l-1.805,2.321c-0.136,0.174-0.233,0.332-0.233,0.563c0,0.195,0.087,0.428,0.233,0.563c0.152,0.139,0.351,0.243,0.563,0.233
						c0.195-0.009,0.437-0.071,0.563-0.233l1.805-2.321c0.135-0.174,0.233-0.332,0.233-0.563
						C272.689,430.733,272.602,430.5,272.456,430.366z"/>
					<path style="fill:#FFFFFF;" d="M275.67,431.116c-0.382-0.202-0.865-0.099-1.089,0.285c-0.402,0.688-0.804,1.376-1.207,2.065
						c-0.21,0.36-0.095,0.888,0.285,1.089c0.381,0.202,0.865,0.099,1.089-0.285c0.402-0.688,0.804-1.376,1.207-2.065
						C276.165,431.845,276.05,431.316,275.67,431.116z"/>
					<path style="fill:#FFFFFF;" d="M246.048,440.318c0.051,0.42,0.103,0.849,0.189,1.286c0.077,0.386,0.146,0.789,0.24,1.2h44.52
						c0,0,0.077-0.454,0.077-1.183c-0.017-0.377-0.043-0.814-0.129-1.303H246.048z"/>
				</g>
				<path style="fill:#8A4932;" d="M214.495,427.554c0,0-12.133-63.916-13.391-85.52c-1.258-21.6,2.266-58.061,3.976-86.453h32.35
					c0,0-10.143,64.432-11.027,86.12c-0.875,21.45,1.602,59.829,1.77,85.854C228.173,427.554,219.753,430.404,214.495,427.554z"/>
				<path style="fill:#8A4932;" d="M248.311,427.554c0,0-5.868-116.91-13.159-171.973h33.41c0,0,3.171,78.433-6.574,171.973
					C261.988,427.554,256.19,428.903,248.311,427.554z"/>
			</g>
			<g>
				<path style="fill:#222B3D;" d="M266.934,415.775c-0.018,0.318-0.035,0.627-0.053,0.918c-0.15,3.107-0.238,4.828-0.238,4.828
					c-0.997,0.388-2.41,0.627-4.034,0.75c-0.282,0.018-0.583,0.044-0.883,0.053c-6.585,0.353-15.844-0.803-15.844-0.803
					c-0.009-1.024-0.044-2.401-0.097-4.078c-0.018-0.283-0.026-0.583-0.044-0.892c-1.183-29.931-9.489-143.661-9.489-143.661
					s-8.12,65.131-8.597,68.98c-0.397,3.257,2.604,58.759,3.522,75.45c0.018,0.318,0.027,0.618,0.044,0.9
					c0.132,2.418,0.212,3.813,0.212,3.813c-0.883,0.177-1.827,0.318-2.816,0.432c-0.291,0.035-0.583,0.062-0.874,0.088
					c-8.324,0.83-19.039-0.053-19.039-0.053s-0.177-1.2-0.485-3.328c-0.035-0.283-0.079-0.583-0.124-0.909
					c-2.083-14.484-8.774-62.227-9.303-80.286c-0.635-21.396,5.146-78.777,5.146-78.777h67.056
					C273.051,286.88,268.188,390.213,266.934,415.775z"/>
				<g>
					<path style="fill:#384259;" d="M269.759,281.796c-1.191,0.053-2.374-0.088-3.513-0.397
						c-0.274,10.327-0.538,20.654-0.803,30.981c-0.477,18.448-0.953,36.904-1.43,55.351c-0.415,16.303-0.839,32.596-1.262,48.89
						c1.404-0.229,2.798-0.512,4.184-0.847c-0.018,0.318-0.035,0.627-0.053,0.918c-1.368,0.327-2.754,0.6-4.148,0.83
						c-0.044,1.58-0.088,3.169-0.124,4.749c-0.282,0.018-0.583,0.044-0.883,0.053c0.035-1.553,0.079-3.116,0.115-4.669
						c-5.322,0.759-10.751,0.689-16.056-0.212c-0.018-0.283-0.026-0.583-0.044-0.892c5.322,0.918,10.777,0.989,16.126,0.212
						c0.212-8.2,0.424-16.409,0.635-24.617l1.43-55.351c0.477-18.553,0.953-37.098,1.43-55.643c0-0.009,0.009-0.018,0.009-0.026
						c-3.116-1.103-5.781-3.46-7.097-6.523c-0.221-0.521,0.539-0.962,0.768-0.441c1.792,4.175,6.17,6.955,10.715,6.752
						C270.333,280.887,270.333,281.77,269.759,281.796z"/>
					<path style="fill:#384259;" d="M208.22,419.173c6.249,0.874,12.604,0.83,18.845-0.15c0.071-0.009,0.15-0.026,0.221-0.035
						c0.123,0.944,0.247,1.898,0.362,2.851c0.026,0.238,0.062,0.477,0.097,0.715c0.291-0.027,0.582-0.053,0.874-0.088
						c-0.159-1.209-0.318-2.418-0.468-3.636c1.033-0.177,2.057-0.38,3.072-0.609c-0.018-0.282-0.027-0.583-0.044-0.9
						c-1.041,0.238-2.092,0.441-3.142,0.627c-2.198-17.15-4.245-34.327-5.102-51.591c-0.494-9.886-0.591-19.78-0.106-29.666
						c0.485-9.789,1.58-19.542,3.151-29.225c1.748-10.742,4.043-21.396,6.646-31.961c0.141-0.556-0.715-0.785-0.847-0.238
						c-2.339,9.489-4.431,19.039-6.09,28.66c-1.651,9.524-2.878,19.118-3.513,28.766c-0.653,9.921-0.688,19.869-0.3,29.807
						c0.388,9.903,1.192,19.78,2.215,29.64c0.9,8.668,1.968,17.309,3.08,25.959c-6.302,1.015-12.754,1.086-19.074,0.168
						L208.22,419.173z"/>
				</g>
			</g>
		</g>
		<g>
			<g>
				<path style="fill:#8A4932;" d="M206.722,106.289c0,0-3.508-3.62-2.233-7.875c1.253-4.183,4.454-5.364,4.454-5.364
					s-4.376-5.094-3.825-6.476c0.551-1.382,6.076,3.842,6.076,3.842s-2.57-7.432-1.384-7.942c1.186-0.51,4.51,7.222,4.51,7.222
					s0.945-8.578,2.691-8.392c1.746,0.187,0.612,10.789,0.612,10.789s5.746-4.971,6.824-3.783c1.551,1.71-8.005,12.498-7.86,12.592
					c0.144,0.094,6.973,1.218,6.032,3.861c-0.908,2.55-3.629-0.028-6.743,0.842C214.43,106.012,209.312,108.378,206.722,106.289z"/>
				<path style="fill:#384259;" d="M203.144,99.671c0,0,0.425-1.754,1.442-1.694c2.585,0.151,9.262,7.449,8.825,8.733
					c-0.334,0.982-2.115,1.424-2.115,1.424L203.144,99.671z"/>
				<path style="fill:#222B3D;" d="M224.849,146.9l-15.411,26.859c0,0-7.6-0.944-16.956-2.816c-1.139-0.221-2.313-0.468-3.504-0.724
					c-1.624-0.353-3.283-0.733-4.952-1.139c-1.174-0.282-2.348-0.582-3.513-0.891c-10.654-2.851-20.566-6.796-22.27-11.81
					c-5.19-15.261,39.208-56.296,45.342-57.267c2.833-0.441,8.721,6.382,8.262,9.489c-0.971,6.717-28.51,33.612-27.645,35.58
					c0.088,0.203,1.244,0.477,3.213,0.777c0.98,0.15,2.154,0.309,3.504,0.459c0.953,0.115,1.986,0.221,3.098,0.327
					c1.103,0.115,2.286,0.212,3.522,0.318C205.157,146.67,215.096,147.12,224.849,146.9z"/>
				<path style="fill:#FFFFFF;" d="M197.54,146.061c-0.124,8.535-1.845,16.991-5.058,24.882c-1.139-0.221-2.313-0.468-3.504-0.724
					c3.239-7.741,4.943-16.064,5.04-24.476C195.121,145.858,196.304,145.955,197.54,146.061z"/>
				<path style="fill:#FFFFFF;" d="M190.92,145.417c-0.821,8.235-3.151,16.285-6.893,23.664c-1.174-0.282-2.348-0.582-3.513-0.891
					c3.769-7.22,6.134-15.12,6.902-23.232C188.395,145.108,189.569,145.267,190.92,145.417z"/>
			</g>
			<g>
				<path style="fill:#FFFFFF;" d="M203.832,261.719c0,0-2.932,12.559-1.957,12.902c31.212,10.986,69.308-2.555,71.274-4.779
					c0.826-0.935-1.657-9.418-1.657-9.418L203.832,261.719z"/>
				<g>
					<g>
						<g>
							<g>
								<g>
									<g>
										<g>
											<path style="fill:#384259;" d="M273.422,262.351c-1.739,2.392-33.02,12.657-70.895,1.333
												c-1.218-0.362,8.959-116.855,8.959-116.855l8.447-0.45l1.765-0.088l3.292-0.176h13.372l2.922,0.768l1.73,0.459
												l9.285,2.463C252.3,149.804,274.781,260.506,273.422,262.351z"/>
										</g>
									</g>
								</g>
							</g>
						</g>
					</g>
				</g>
				<path style="fill:#222B3D;" d="M243.014,147.341c-0.689,5.49-5.552,9.824-11.254,9.797c-6.17-0.026-11.042-4.846-11.828-10.759
					l1.765-0.088c0.706,4.987,4.846,9.065,10.062,9.082c4.96,0.018,9.021-3.734,9.524-8.491L243.014,147.341z"/>
				<path style="fill:#222B3D;" d="M271.255,256.595c-7.705,3.17-15.813,5.338-24.07,6.455c-8.311,1.124-16.773,1.184-25.1,0.18
					c-4.682-0.564-9.32-1.481-13.868-2.724c-0.549-0.15-0.783,0.701-0.235,0.851c8.138,2.224,16.56,3.379,24.995,3.459
					c8.4,0.079,16.817-0.905,24.97-2.929c4.616-1.146,9.144-2.632,13.542-4.441C272.008,257.233,271.781,256.379,271.255,256.595z"
					/>
				<path style="fill:#222B3D;" d="M250.622,178.618c0,3.796-2.238,6.874-4.999,6.874s-4.999-3.077-4.999-6.874
					s2.238-6.873,4.999-6.873S250.622,174.822,250.622,178.618z"/>
			</g>
			<g>
				<path d="M241.471,130.061c1.847,0.494,3.965-0.147,5.193-1.573c1.228-1.426,1.499-3.559,0.665-5.23
					c2.877-1.34,5.098-3.936,5.923-6.922c0.825-2.986,0.239-6.31-1.563-8.862c1.609-0.819,2.185-2.73,1.867-4.463
					c-0.317-1.733-1.879-3.183-3.681-3.416c0.896-3.783-0.691-8.009-3.887-10.35c-3.196-2.341-7.826-2.67-11.341-0.806
					c-0.879-1.645-2.462-2.693-4.351-2.98c-1.889-0.287-3.903,0.344-5.26,1.649c-1.789-2.433-4.698-4.063-7.768-4.352
					c-3.07-0.289-6.248,0.767-8.488,2.821c-1.136,1.041-2.046,2.349-2.431,3.817c-0.386,1.468-0.21,3.102,0.641,4.374
					c-1.394,1.065-2.039,2.813-1.802,4.517c0.237,1.704,1.454,3.249,3.089,3.919c-1.261,1.347-1.742,3.362-1.361,5.143
					c0.381,1.78,1.679,3.353,3.388,4.105c-1.451,1.42-1.268,3.794-0.436,5.622c1.202,2.64,3.488,4.712,6.061,6.165
					c2.573,1.454,5.439,2.344,8.301,3.143C229.929,127.971,235.756,128.532,241.471,130.061z"/>
				<g>
					<path style="fill:#8A4932;" d="M243.986,124.835c0,0-5.271,10.003-5.897,23.554c-3.051,6.043-11.314,4.817-13.157-0.771
						c0.3-5.151-0.514-7.603-2.091-9.437c-0.129-0.154-0.257-0.291-0.394-0.437c-0.094-0.103-0.189-0.197-0.291-0.291
						c-0.189-0.189-0.403-0.36-0.609-0.549c-1.423-1.226-3.214-2.383-5.246-4.329c-2.383-2.263-4.106-5.323-4.646-10.063
						c-0.009-0.069-0.017-0.137-0.026-0.206c-0.009-0.12-0.017-0.231-0.026-0.351c-0.008-0.051-0.008-0.103-0.017-0.154
						c-0.377-4.534,0.249-10.551,2.306-18.814c2.134-8.571,23.254-11.057,28.569,0.197
						C244.646,107.829,243.986,124.835,243.986,124.835z"/>
					<path d="M212.43,103.072c0.173,0.916,1.201,1.429,2.132,1.465c0.964,0.036,1.938-0.297,2.677-0.918
						c0.332-0.279,0.664-0.633,1.097-0.644c0.28-0.007,0.538,0.134,0.799,0.234c1.141,0.436,2.55,0.011,3.26-0.983
						c1.131,1.575,2.973,2.618,4.905,2.78c1.932,0.162,3.921-0.561,5.299-1.925c-0.197,1.381,0.314,2.845,1.329,3.803
						c1.015,0.957,2.506,1.383,3.874,1.105c-0.813,1.216-0.702,2.921-0.114,4.26c0.589,1.339,1.891,2.339,3.337,2.561
						c-0.425,1.483-0.045,3.17,0.975,4.328c1.02,1.157,2.646,1.747,4.17,1.513c1.312-4.06,2.076-8.126,2.158-12.392
						c0.053-2.751-0.162-5.546-1.101-8.132c-2.464-6.79-11.663-9.462-18.877-9.813c-2.793-0.136-5.586,0.19-8.363,0.515
						c-1.539,0.18-3.133,0.378-4.455,1.185c-1.688,1.03-2.692,2.933-3.079,4.871C212.066,98.823,212.063,101.129,212.43,103.072z"/>
					<g>
						<g>
							<path d="M228.689,119.229c-0.044,0.74-0.679,1.305-1.42,1.262c-0.74-0.044-1.305-0.679-1.262-1.42
								c0.044-0.74,0.679-1.305,1.42-1.262C228.167,117.853,228.732,118.488,228.689,119.229z"/>
							<path style="fill:#FFFFFF;" d="M227.37,118.783c-0.016,0.271-0.249,0.478-0.52,0.462c-0.271-0.016-0.478-0.249-0.462-0.52
								c0.016-0.271,0.249-0.478,0.52-0.462S227.386,118.512,227.37,118.783z"/>
						</g>
						<g>
							<path d="M218.319,118.617c-0.044,0.74-0.679,1.305-1.42,1.262c-0.74-0.044-1.305-0.679-1.261-1.42
								c0.044-0.74,0.679-1.305,1.42-1.261C217.798,117.241,218.363,117.877,218.319,118.617z"/>
							<path style="fill:#FFFFFF;" d="M217,118.172c-0.016,0.271-0.249,0.478-0.52,0.462c-0.271-0.016-0.478-0.249-0.462-0.52
								c0.016-0.271,0.249-0.478,0.52-0.462S217.016,117.901,217,118.172z"/>
						</g>
						<path d="M219.526,113.933c-1.615-1.271-3.807-1.333-5.475-0.054c-0.312,0.24-0.395,0.753-0.189,1.101
							c0.211,0.355,0.645,0.438,0.958,0.198c0.685-0.525,1.529-0.73,2.336-0.623c0.408,0.054,0.806,0.188,1.172,0.397
							c0.324,0.186,0.631,0.493,1.018,0.3c0.092-0.046,0.174-0.117,0.24-0.204C219.813,114.751,219.833,114.174,219.526,113.933z"/>
						<path d="M224.958,112.941c2-1.058,4.504-0.843,6.243,0.637c0.326,0.277,0.354,0.798,0.076,1.117
							c-0.285,0.326-0.79,0.354-1.117,0.076c-0.713-0.607-1.651-0.907-2.581-0.9c-0.471,0.004-0.941,0.084-1.385,0.241
							c-0.392,0.138-0.785,0.401-1.198,0.162c-0.099-0.057-0.183-0.138-0.247-0.233
							C224.529,113.717,224.579,113.142,224.958,112.941z"/>
						<path style="fill:#662D18;" d="M219.771,122.351c-0.076-0.004-0.143-0.058-0.161-0.136c-0.264-1.162,0.147-1.528,0.539-1.63
							c0.397-0.102,0.858,0.026,1.371,0.385c0.079,0.055,0.098,0.165,0.043,0.245c-0.057,0.078-0.167,0.097-0.245,0.043
							c-0.423-0.297-0.787-0.41-1.08-0.333c-0.351,0.091-0.447,0.499-0.285,1.213c0.021,0.094-0.038,0.188-0.132,0.21
							C219.804,122.351,219.787,122.352,219.771,122.351z"/>
						<path style="fill:#C16B5B;" d="M224.94,124.347c-0.118-0.21-0.33-0.333-0.581-0.336c-1.801-0.007-3.653,0.39-5.316,1.194
							c-0.155,0.075-0.27,0.214-0.324,0.392c-0.058,0.191-0.036,0.403,0.06,0.565c0.127,0.218,0.35,0.338,0.591,0.338
							c0.112,0,0.229-0.026,0.341-0.08c1.424-0.689,3.003-1.049,4.642-1.022c0.256,0.008,0.46-0.112,0.58-0.315
							C225.064,124.862,225.067,124.573,224.94,124.347z"/>
					</g>
					<g>
						<path style="fill:#8A4932;" d="M248.544,125.494c-1.918,2.032-4.781,2.444-6.394,0.922c-1.613-1.523-1.365-4.404,0.553-6.436
							c1.918-2.032,4.781-2.444,6.394-0.922C250.71,120.58,250.462,123.462,248.544,125.494z"/>
						<path style="fill:#662D18;" d="M247.865,120.035c-0.738-0.448-1.756-0.489-2.72-0.107c-0.481,0.189-0.835,0.434-1.087,0.747
							c-0.332,0.414-0.449,0.952-0.305,1.404c0.128,0.405,0.429,0.681,0.694,0.924c0.192,0.176,0.374,0.342,0.471,0.534
							c0.149,0.294,0.083,0.691-0.153,0.922c-0.235,0.23-0.633,0.286-0.924,0.13c-0.172-0.092-0.383-0.027-0.475,0.144
							c-0.091,0.17-0.027,0.384,0.144,0.475c0.187,0.1,0.393,0.155,0.602,0.167c0.416,0.025,0.842-0.12,1.144-0.415
							c0.453-0.444,0.574-1.175,0.287-1.74c-0.154-0.305-0.403-0.533-0.622-0.734c-0.22-0.202-0.428-0.393-0.5-0.62
							c-0.072-0.227,0-0.522,0.184-0.752c0.074-0.093,0.173-0.174,0.281-0.253c0.348,0.017,0.777,0.15,0.983,0.403
							c0.232,0.286,0.326,0.686,0.245,1.044c-0.043,0.189,0.076,0.377,0.265,0.419c0.019,0.005,0.038,0.007,0.057,0.008
							c0.168,0.01,0.324-0.103,0.362-0.273c0.13-0.571-0.014-1.184-0.384-1.641c-0.138-0.169-0.316-0.289-0.503-0.389
							c0.589-0.122,1.159-0.057,1.588,0.203c0.531,0.322,0.901,1.094,0.583,1.686c-0.091,0.171-0.027,0.383,0.144,0.475
							c0.171,0.091,0.383,0.027,0.475-0.144C249.165,121.79,248.781,120.591,247.865,120.035z"/>
					</g>
				</g>
			</g>
			<g>
				<path style="fill:#8A4932;" d="M310.899,147.763c0,0,4.268,2.682,8.167,0.553c3.832-2.093,4.325-5.468,4.325-5.468
					s5.89,3.226,7.128,2.4c1.238-0.826-5.018-5.148-5.018-5.148s7.803,0.975,8.056-0.291c0.253-1.266-8-2.916-8-2.916
					s8.196-2.701,7.652-4.371c-0.544-1.669-10.682,1.636-10.682,1.636s3.674-6.651,2.288-7.459
					c-1.995-1.163-10.569,10.42-10.691,10.298c-0.122-0.122-2.636-6.569-5.027-5.102c-2.307,1.416,0.779,3.545,0.573,6.771
					C309.574,140.165,308.319,145.663,310.899,147.763z"/>
				<path style="fill:#384259;" d="M308.489,146.84c0,0-0.493-1.77,0.439-2.181c2.029-0.894,11.712,2.021,11.953,3.357
					c0.184,1.021-1.158,2.271-1.158,2.271L308.489,146.84z"/>
				<path style="fill:#222B3D;" d="M294.685,209.409c-6.858,0.538-14.82-3.654-21.669-9.233c-0.988-0.803-1.959-1.642-2.895-2.498
					c-0.777-0.706-1.536-1.43-2.268-2.162c-0.98-0.971-1.915-1.96-2.789-2.939c-2.913-3.257-5.243-6.496-6.655-9.215
					c-8.324-16.011-6.108-33.559-6.108-33.559c7.035,1.88,18.112,13.099,26.639,22.455c0.812,0.891,1.606,1.765,2.366,2.613
					c0.847,0.945,1.659,1.854,2.427,2.719c0.839,0.945,1.615,1.827,2.339,2.639c2.807,3.16,4.678,5.234,5.031,5.208
					c1.05-0.079,12.333-34.241,16.34-38.61c1.898-2.057,13.275,0.927,13.399,3.716C321.132,156.915,309.072,208.262,294.685,209.409
					z"/>
				<path style="fill:#FFFFFF;" d="M286.07,180.229c-5.605,5.755-11.007,12.225-13.055,19.948c-0.988-0.803-1.959-1.642-2.895-2.498
					c2.524-7.697,7.9-14.211,13.611-20.089C284.57,178.534,285.346,179.417,286.07,180.229z"/>
				<path style="fill:#FFFFFF;" d="M281.304,174.871c-5.808,5.932-11.457,12.613-13.452,20.645c-0.98-0.971-1.915-1.96-2.789-2.939
					c2.569-7.794,8.068-14.387,13.875-20.319C279.75,173.15,280.545,174.024,281.304,174.871z"/>
			</g>
		</g>
	</g>
	<g>
		<g>
			<path style="fill:#E6CEA6;" d="M253.786,57.683c0.524-2.524,1.222-4.456,2.096-5.799c0.874-1.342,2.061-2.416,3.563-3.222
				c1.502-0.806,2.677-1.585,3.528-2.337c0.85-0.752,1.387-1.664,1.609-2.736c0.542-2.61-0.311-4.148-2.557-4.615
				c-1.037-0.215-1.955-0.009-2.752,0.619c-0.798,0.628-1.348,1.586-1.652,2.875l-8.764-1.82c0.752-3.45,2.4-5.916,4.943-7.398
				c2.543-1.482,5.751-1.821,9.623-1.017c3.854,0.8,6.656,2.311,8.403,4.531c1.747,2.22,2.281,4.972,1.599,8.256
				c-0.298,1.435-0.854,2.68-1.669,3.737c-0.814,1.057-1.98,2.068-3.496,3.033l-3.558,2.155c-1.016,0.637-1.777,1.348-2.283,2.136
				c-0.506,0.787-0.913,1.835-1.22,3.141L253.786,57.683z M251.087,65.344c0.265-1.279,0.945-2.233,2.041-2.863
				c1.095-0.629,2.334-0.8,3.717-0.513c1.382,0.287,2.451,0.937,3.206,1.95c0.754,1.013,0.998,2.16,0.733,3.438
				c-0.266,1.279-0.946,2.233-2.041,2.862c-1.095,0.629-2.335,0.8-3.717,0.513c-1.383-0.287-2.452-0.937-3.206-1.95
				C251.065,67.769,250.821,66.623,251.087,65.344z"/>
		</g>
		<g>
			<path style="fill:#E6CEA6;" d="M191.623,75.76c-1.402-1.467-2.343-2.783-2.823-3.949c-0.48-1.166-0.646-2.415-0.498-3.749
				c0.148-1.334,0.169-2.444,0.061-3.331c-0.108-0.887-0.459-1.642-1.055-2.265c-1.45-1.517-2.828-1.651-4.134-0.403
				c-0.603,0.576-0.879,1.263-0.828,2.06c0.051,0.798,0.426,1.583,1.126,2.355l-5.094,4.869c-1.901-2.028-2.763-4.199-2.588-6.51
				c0.175-2.311,1.388-4.542,3.639-6.693c2.24-2.141,4.471-3.282,6.691-3.424c2.22-0.141,4.242,0.743,6.067,2.651
				c0.797,0.834,1.356,1.751,1.677,2.751c0.322,1,0.456,2.207,0.405,3.622l-0.192,3.269c-0.041,0.943,0.081,1.754,0.365,2.434
				c0.284,0.68,0.782,1.411,1.491,2.194L191.623,75.76z M195.384,80.933c-0.71-0.743-1.025-1.611-0.944-2.602
				c0.081-0.991,0.524-1.87,1.328-2.639c0.804-0.768,1.702-1.171,2.696-1.207c0.994-0.036,1.846,0.317,2.556,1.061
				c0.711,0.744,1.025,1.611,0.944,2.602c-0.081,0.991-0.524,1.871-1.328,2.639c-0.804,0.768-1.703,1.171-2.696,1.207
				C196.947,82.03,196.095,81.676,195.384,80.933z"/>
		</g>
		<g>
			<path style="fill:#E6CEA6;" d="M272.057,108.387c0.706-1.006,1.377-1.72,2.013-2.142c0.636-0.422,1.358-0.668,2.168-0.737
				c0.81-0.069,1.471-0.188,1.986-0.356c0.514-0.168,0.921-0.466,1.221-0.893c0.73-1.04,0.648-1.875-0.247-2.503
				c-0.413-0.29-0.854-0.373-1.321-0.249c-0.468,0.124-0.89,0.44-1.266,0.947l-3.492-2.452c0.981-1.368,2.168-2.136,3.561-2.304
				c1.393-0.168,2.861,0.289,4.404,1.373c1.536,1.078,2.476,2.269,2.822,3.57c0.345,1.302,0.059,2.607-0.86,3.915
				c-0.402,0.572-0.88,1.012-1.436,1.321c-0.556,0.309-1.257,0.531-2.103,0.667l-1.964,0.271c-0.565,0.087-1.033,0.255-1.403,0.504
				c-0.37,0.249-0.746,0.631-1.127,1.144L272.057,108.387z M269.428,111.23c0.358-0.51,0.836-0.799,1.434-0.867
				c0.598-0.068,1.173,0.091,1.724,0.478c0.551,0.387,0.896,0.873,1.035,1.459c0.139,0.586,0.029,1.134-0.329,1.643
				c-0.358,0.51-0.836,0.799-1.434,0.867c-0.598,0.068-1.173-0.091-1.724-0.478c-0.551-0.387-0.896-0.873-1.035-1.459
				C268.961,112.287,269.071,111.74,269.428,111.23z"/>
		</g>
	</g>
	<g>
		<g>
			<circle style="fill:#F73859;" cx="313.525" cy="87.332" r="15.55"/>
			<path style="fill:#FFFFFF;" d="M316.718,87.332l5.706-5.706c0.882-0.882,0.882-2.312,0-3.193c-0.881-0.882-2.312-0.882-3.193,0
				l-5.706,5.706l-5.706-5.706c-0.881-0.882-2.312-0.882-3.193,0c-0.882,0.882-0.882,2.312,0,3.193l5.706,5.706l-5.706,5.706
				c-0.882,0.882-0.882,2.312,0,3.194c0.44,0.441,1.019,0.661,1.596,0.661c0.578,0,1.156-0.22,1.596-0.661l5.706-5.706l5.706,5.706
				c0.441,0.441,1.019,0.661,1.596,0.661c0.578,0,1.156-0.22,1.597-0.661c0.882-0.882,0.882-2.312,0-3.194L316.718,87.332z"/>
		</g>
		<g>
			<path style="fill:#F73859;" d="M424.811,102.743c1.203,5.145-1.993,10.291-7.139,11.494c-5.145,1.203-10.292-1.993-11.494-7.139
				c-1.203-5.145,1.993-10.292,7.139-11.494C418.463,94.402,423.609,97.598,424.811,102.743z"/>
			<path style="fill:#FFFFFF;" d="M417.408,104.474l2.619-4.218c0.405-0.652,0.205-1.509-0.447-1.913
				c-0.651-0.405-1.509-0.204-1.913,0.447l-2.62,4.218l-4.218-2.619c-0.651-0.405-1.509-0.204-1.913,0.447
				c-0.405,0.652-0.205,1.509,0.447,1.913l4.218,2.619l-2.619,4.218c-0.405,0.652-0.205,1.508,0.447,1.913
				c0.326,0.202,0.703,0.254,1.049,0.173c0.346-0.081,0.662-0.294,0.864-0.62l2.62-4.218l4.218,2.62
				c0.326,0.202,0.703,0.254,1.049,0.173c0.346-0.081,0.662-0.294,0.864-0.62c0.405-0.652,0.205-1.509-0.447-1.913L417.408,104.474z
				"/>
		</g>
		<g>
			<path style="fill:#7AC7C4;" d="M90.964,117.227c4.929,8.35,2.156,19.114-6.194,24.043c-8.35,4.929-19.114,2.156-24.043-6.194
				c-4.929-8.35-2.156-19.114,6.194-24.043S86.036,108.877,90.964,117.227z"/>
			<path style="fill:#FFFFFF;" d="M76.996,136.279c-0.506,0.299-1.127,0.405-1.741,0.246l-9.76-2.514
				c-1.229-0.316-1.969-1.569-1.652-2.798c0.316-1.228,1.57-1.968,2.798-1.652l7.535,1.941l4.655-18.069
				c0.316-1.228,1.57-1.968,2.798-1.652c1.229,0.316,1.969,1.569,1.652,2.798l-5.228,20.294
				C77.895,135.488,77.503,135.981,76.996,136.279z"/>
		</g>
		<g>
			<path style="fill:#7AC7C4;" d="M167.987,93.236c-3.085,3.923-8.766,4.601-12.688,1.516c-3.923-3.085-4.601-8.766-1.516-12.688
				c3.085-3.923,8.766-4.601,12.689-1.516C170.393,83.633,171.072,89.314,167.987,93.236z"/>
			<path style="fill:#FFFFFF;" d="M156.241,90.092c-0.238-0.187-0.404-0.465-0.443-0.789l-0.616-5.151
				c-0.078-0.649,0.385-1.237,1.034-1.315c0.648-0.078,1.237,0.386,1.314,1.034l0.475,3.977l9.536-1.14
				c0.648-0.078,1.237,0.386,1.314,1.034c0.078,0.649-0.385,1.237-1.034,1.315l-10.71,1.28
				C156.789,90.376,156.479,90.279,156.241,90.092z"/>
		</g>
	</g>
</g>
</svg>